<?xml version="1.0" encoding="UTF-8"?>
<svg id="layer" xmlns="http://www.w3.org/2000/svg" version="1.1" viewBox="0 0 652 652">
  <!-- Generator: Adobe Illustrator 29.5.1, SVG Export Plug-In . SVG Version: 2.1.0 Build 141)  -->
  <defs>
    <style>
      .st0 {
        fill: #c2d0d4;
      }

      .st1 {
        fill: #6da4ba;
      }
    </style>
  </defs>
  <path class="st0" d="M326.21,366.94l2.17-.09.09,11.74h-2.17l-.09-11.65ZM320.04,378.59l.52-11.74,2.17.09-.43,11.74-2.26-.09ZM331.78,366.85l2.17-.09.7,11.74-2.17.17-.7-11.82ZM313.95,378.16l.87-11.74,2.26.17-.96,11.74-2.17-.17ZM337.43,366.42l2.17-.26,1.13,11.74-2.17.17-1.13-11.65ZM307.78,377.46l1.57-11.65,2.17.26-1.48,11.65-2.26-.26ZM342.99,365.81l2.17-.35,1.74,11.65-2.09.26-1.83-11.56h.01,0ZM301.69,376.5l2.09-11.56,2.26.35-2.17,11.56-2.17-.35h0ZM348.56,364.85l2.17-.43,2.35,11.56-2.17.35-2.35-11.48ZM295.69,375.2l2.52-11.48,2.17.52-2.52,11.48-2.17-.52ZM354.03,363.72l2.17-.52,2.87,11.39-2.17.52-2.87-11.39ZM289.69,373.72l3.04-11.3,2.17.52-3.13,11.3-2.09-.52h0ZM359.6,362.25l2.09-.61,3.3,11.3-2.09.61-3.3-11.3ZM283.78,371.81l3.65-11.13,2.09.7-3.65,11.22-2.09-.78h0ZM364.9,360.51l2.09-.7,3.83,11.13-2.09.7-3.83-11.13ZM277.96,369.72l4.26-10.96,2.09.78-4.26,10.96-2.09-.78ZM370.21,358.59l2-.87,4.43,10.87-2.09.87-4.35-10.87h.01ZM272.22,367.38l4.61-10.78,2.09.87-4.61,10.78-2.09-.87ZM375.42,356.42l2-.96,4.87,10.61-2,.96-4.87-10.61ZM266.65,364.68l5.13-10.52,2,.96-5.13,10.61-2-1.04h0ZM380.47,354.07l2-1.04,5.39,10.43-1.91,1.04-5.48-10.43h0ZM261.17,361.81l5.65-10.26,1.91,1.04-5.65,10.35-1.91-1.13ZM385.42,351.38l1.91-1.13,5.91,10.17-1.91,1.13-5.91-10.17ZM255.87,358.68l6.17-10,1.91,1.13-6.17,10.09-1.91-1.22ZM390.29,348.51l1.83-1.22,6.43,9.82-1.83,1.22-6.43-9.82ZM250.65,355.29l6.61-9.65,1.83,1.22-6.61,9.65-1.83-1.22h0ZM394.99,345.29l1.83-1.3,6.78,9.65-1.83,1.3-6.78-9.65ZM245.7,351.64l7.13-9.39,1.74,1.3-7.04,9.39-1.83-1.3h0ZM399.59,341.99l1.74-1.39,7.22,9.3-1.74,1.39-7.22-9.3ZM240.83,347.81l7.39-9.13,1.74,1.39-7.39,9.13-1.74-1.39ZM403.94,338.42l1.65-1.39,7.56,8.87-1.65,1.39-7.56-8.87ZM236.22,343.73l7.83-8.69,1.65,1.48-7.83,8.69-1.65-1.48ZM408.11,334.77l1.65-1.48,8.09,8.52-1.65,1.48-8.09-8.52ZM231.7,339.47l8.26-8.43,1.57,1.57-8.26,8.35-1.57-1.48h0ZM412.2,330.86l1.57-1.57,8.43,8.17-1.57,1.57-8.43-8.17ZM227.53,334.94l8.69-7.91,1.48,1.65-8.61,7.91-1.57-1.65h.01ZM416.03,326.68l1.48-1.65,8.78,7.74-1.48,1.65-8.78-7.74ZM223.44,330.25l9.04-7.56,1.39,1.65-8.96,7.56-1.48-1.65h.01ZM419.68,322.42l1.39-1.74,9.22,7.3-1.39,1.74-9.22-7.3ZM219.61,325.38l9.39-7.04,1.3,1.74-9.39,7.13-1.3-1.83ZM423.16,317.99l1.3-1.83,9.56,6.78-1.3,1.83-9.56-6.78ZM216.05,320.25l9.65-6.61,1.3,1.83-9.74,6.61-1.22-1.83h.01ZM426.46,313.29l1.22-1.83,9.82,6.61-1.22,1.83-9.82-6.61ZM212.66,315.12l10-6.17,1.13,1.91-10,6.17-1.13-1.91ZM429.5,308.6l1.13-1.91,10.09,6-1.13,1.91-10.09-6ZM209.62,309.82l10.26-5.83,1.04,1.91-10.17,5.83-1.13-1.91h0ZM432.29,303.73l1.04-2,10.35,5.56-1.04,1.91-10.35-5.48h0ZM206.75,304.34l10.52-5.3.96,1.91-10.52,5.3-.96-1.91ZM434.81,298.69l.96-2,10.61,5.04-.96,2-10.61-5.04ZM204.14,298.69l10.69-4.87.96,2-10.78,4.78-.87-1.91h0ZM437.16,293.64l.87-2.09,10.87,4.43-.78,2.09-10.96-4.43h0ZM201.88,292.95l10.96-4.26.78,2.09-10.96,4.26-.78-2.09ZM439.24,288.34l.78-2.09,11.04,4-.7,2.09-11.13-4h.01ZM199.79,287.12l11.13-3.65.7,2.09-11.13,3.74-.7-2.17h0ZM441.15,283.04l.7-2.09,11.22,3.56-.7,2.09-11.22-3.56ZM198.05,281.12l11.3-3.13.61,2.09-11.3,3.13-.61-2.09ZM442.72,277.65l.52-2.17,11.39,2.96-.61,2.09-11.3-2.87h0ZM196.57,275.12l11.39-2.61.52,2.09-11.48,2.61-.43-2.09h0ZM444.02,272.17l.43-2.17,11.48,2.35-.43,2.17-11.48-2.35ZM195.27,269.13l11.56-2.17.43,2.17-11.56,2.17-.43-2.17ZM445.15,266.69l.35-2.17,11.65,1.83-.35,2.17-11.65-1.83ZM194.4,263.04l11.56-1.65.35,2.17-11.56,1.57-.35-2.09h0ZM445.94,261.04l.26-2.26,11.65,1.39-.26,2.17-11.65-1.3h0ZM193.7,256.78l11.74-.96.17,2.17-11.65,1.04-.26-2.26h0ZM446.55,255.39l.17-2.17,11.74.78-.17,2.17-11.74-.78h0ZM193.36,250.69l11.74-.52.09,2.17-11.65.52-.17-2.17h-.01ZM446.81,250.95l.09-2.17,11.74.35-.09,2.26-11.74-.43h0ZM193.36,246.69v-2.17h11.74v2.17h-11.74ZM446.89,243.13l11.74-.17v2.17l-11.74.17v-2.17ZM193.44,240.52l.09-2.26,11.74.61-.09,2.17-11.74-.52ZM446.63,237.56l11.74-.78.17,2.17-11.74.78-.17-2.17ZM193.79,234.35l.26-2.17,11.65,1.04-.17,2.17-11.74-1.04h0ZM446.11,231.91l11.65-1.22.26,2.17-11.74,1.22-.17-2.17h0ZM194.49,228.17l.26-2.17,11.65,1.65-.26,2.17-11.65-1.65ZM445.33,226.26l11.65-1.74.26,2.17-11.65,1.74-.26-2.17ZM195.53,222.09l.43-2.09,11.56,2.26-.43,2.17-11.56-2.35h0ZM444.28,220.78l11.48-2.35.43,2.17-11.48,2.35-.43-2.17ZM196.75,216.09l.52-2.17,11.39,2.7-.52,2.09-11.39-2.61h0ZM442.98,215.31l11.39-2.96.52,2.09-11.39,2.96-.52-2.09ZM198.23,210.09l.61-2.17,11.3,3.22-.61,2.09-11.3-3.13h0ZM441.42,209.91l11.22-3.39.7,2.09-11.22,3.48-.7-2.17h0ZM200.14,204.18l.7-2.09,11.13,3.83-.7,2.09-11.13-3.83ZM439.59,204.52l11.13-3.83.7,2.09-11.13,3.91-.7-2.17ZM202.22,198.26l.78-2.09,10.96,4.35-.78,2-10.96-4.26h0ZM437.5,199.22l10.87-4.35.87,2-10.87,4.43-.87-2.09h0ZM204.57,192.53l.87-2,10.69,4.96-.96,2-10.61-4.96h.01ZM435.24,194.18l10.69-4.96.96,2-10.61,4.96-1.04-2h0ZM207.18,187.05l.96-1.91,10.52,5.3-.96,1.91-10.52-5.3ZM432.63,189.13l10.43-5.39,1.04,1.91-10.43,5.48-1.04-2ZM210.05,181.57l1.04-1.91,10.26,5.83-1.13,1.91-10.17-5.83h0ZM429.85,184.18l10.17-5.91,1.13,1.83-10.09,5.91-1.22-1.83h.01,0ZM213.18,176.18l1.13-1.83,10,6.26-1.22,1.83-9.91-6.26ZM426.9,179.48l9.82-6.43,1.22,1.83-9.82,6.35-1.22-1.74h0ZM216.57,171.05l1.3-1.83,9.56,6.78-1.22,1.83-9.65-6.78h0ZM423.68,174.79l9.56-6.87,1.3,1.83-9.56,6.87-1.3-1.83ZM220.22,166.01l1.39-1.74,9.3,7.22-1.39,1.74-9.3-7.22ZM420.29,170.35l9.22-7.3,1.39,1.74-9.22,7.3-1.39-1.74ZM224.05,161.14l1.39-1.65,8.96,7.65-1.39,1.65-8.96-7.65ZM416.64,166.01l8.87-7.65,1.48,1.65-8.87,7.74-1.48-1.74ZM228.14,156.44l1.48-1.65,8.52,8.09-1.48,1.65-8.52-8.09ZM412.81,161.92l8.52-8.09,1.57,1.57-8.52,8.09-1.57-1.57ZM232.4,152.09l1.57-1.57,8.26,8.35-1.57,1.57-8.26-8.35ZM408.81,158.01l8.09-8.52,1.57,1.57-8.09,8.52-1.57-1.57ZM236.83,147.83l1.65-1.48,7.83,8.69-1.65,1.48-7.83-8.69ZM404.55,154.18l7.65-8.87,1.65,1.39-7.65,8.96-1.65-1.48h0ZM241.52,143.75l1.74-1.39,7.39,9.13-1.74,1.39-7.39-9.13ZM400.2,150.53l7.39-9.13,1.65,1.39-7.3,9.13-1.74-1.39h0ZM246.39,139.92l1.83-1.3,6.96,9.48-1.74,1.3-7.04-9.48h-.01ZM395.68,147.23l6.96-9.48,1.74,1.3-6.96,9.48-1.74-1.3ZM251.44,136.36l1.83-1.22,6.52,9.74-1.91,1.22-6.43-9.74h-.01ZM390.99,144.1l6.52-9.82,1.83,1.22-6.43,9.82-1.91-1.22h-.01,0ZM256.65,132.97l1.83-1.13,6,10.09-1.83,1.13-6-10.09ZM386.2,141.14l5.91-10.09,1.91,1.04-6,10.09-1.83-1.04h.01,0ZM261.96,129.84l1.91-1.04,5.56,10.35-1.91,1.04-5.56-10.35ZM381.25,138.53l5.48-10.43,1.91,1.04-5.48,10.43-1.91-1.04h0ZM267.52,126.97l2-.96,5.04,10.61-2,.96-5.04-10.61ZM376.12,136.01l5.04-10.61,2,.96-4.96,10.61-2.09-.96h.01,0ZM273,124.36l2-.87,4.7,10.78-2,.87-4.7-10.78ZM370.99,133.84l4.43-10.87,2,.87-4.43,10.87-2-.87ZM278.74,122.1l2.09-.78,4.09,11.04-2,.78-4.17-11.04h0ZM365.68,131.84l3.91-11.04,2.09.7-3.91,11.04-2.09-.7ZM284.65,120.01l2.09-.7,3.56,11.22-2.09.61-3.56-11.13ZM360.38,130.1l3.39-11.3,2.09.61-3.39,11.3-2.09-.61ZM290.56,118.19l2.09-.52,3.04,11.39-2.09.52-3.04-11.39h0ZM354.9,128.62l2.96-11.3,2.09.52-2.87,11.39-2.17-.61h-.01,0ZM296.56,116.71l2.17-.52,2.43,11.48-2.09.43-2.52-11.39h0ZM349.43,127.4l2.35-11.48,2.17.43-2.35,11.48-2.17-.43ZM302.56,115.49l2.17-.35,2,11.56-2.17.35-2-11.56ZM343.86,126.53l1.83-11.56,2.17.26-1.83,11.56-2.17-.26ZM308.73,114.53l2.17-.26,1.48,11.65-2.17.26-1.48-11.65ZM338.21,125.75l1.3-11.65,2.17.26-1.3,11.74-2.17-.35ZM314.82,113.93l2.26-.17.87,11.74-2.17.17-.96-11.74ZM332.56,125.32l.78-11.74,2.17.17-.78,11.74-2.17-.17ZM321.08,113.49l2.17-.09.26,11.74h-2.17l-.26-11.65ZM326.99,125.14l.17-11.82h2.26l-.17,11.82h-2.26Z"/>
  <path class="st0" d="M495.3,540.79c1.48,1.65,5.22,5.74,13.13,5.74,8.78,0,14.43-5.22,14.43-12.17,0-5.48-4.7-9.3-7.74-10.61v-.17c2.87-1.3,6.61-5.13,6.61-10,0-7.13-5.91-11.65-13.3-11.65-6.96,0-11.82,5.56-11.82,5.56-.43.52-.52,1.22,0,1.65l2.35,2.09c.52.52,1.3.35,1.65-.17,1.3-1.39,3.56-3.56,7.39-3.56s7.3,2.7,7.3,6.96c0,3.74-3.04,6.78-8.96,6.78h-3.56c-.87,0-1.3.43-1.3,1.39v2.78c0,.87.52,1.3,1.22,1.3h3.56c6.87,0,10.09,3.65,10.09,7.48,0,4.26-3.83,6.87-8,6.87-4.78,0-8.26-3.39-8.69-3.91-.52-.61-1.13-.61-1.74-.09l-2.52,2.35c-.43.26-.43.96-.09,1.39M476.26,540.79c-6.96,0-9.3-7.3-8.78-12.61.35-1.13,3.65-4.87,8.69-4.87,4.78,0,8.52,3.91,8.52,8.69-.09,4.78-3.74,8.78-8.43,8.78M461.22,528.62c0,9.82,4.87,17.82,15.04,17.82,7.74,0,14.26-6.61,14.26-14.61,0-8.78-6.61-13.82-13.39-13.82-4.26,0-8,2.09-8.43,2.35,2.09-7.83,12.26-13.13,15.22-14.09,1.22-.35,1.48-1.04,1.13-1.83l-1.04-2.61c-.26-.7-.87-.96-1.65-.78-5.91,2.26-21.13,9.74-21.13,27.56M431.83,534.44c0-3.39,2.96-6.96,8.09-7.65,5.22.78,8.09,4.26,8.09,7.65,0,4.26-3.65,6.96-8.17,6.96-4.17-.09-8-2.78-8-6.96M439.92,520.62c-4.96-.78-7.13-3.39-7.13-6.78,0-3.91,3.13-6.69,6.96-6.69,4.17,0,7.3,2.78,7.3,6.69,0,3.3-2.17,6.09-7.13,6.78M425.13,534.27c0,6.96,5.65,12.26,14.61,12.26s14.87-5.3,14.87-12.26c0-5.48-4.78-9.3-7.74-10.69v-.17c2.78-1.39,6.52-4.96,6.52-9.82,0-7.04-5.83-11.65-13.65-11.65s-13.56,4.7-13.56,11.65c0,4.96,3.83,8.52,6.61,9.91v.17c-2.26.96-7.65,5.04-7.65,10.61M394.62,545.83h22.17c.7,0,1.22-.52,1.22-1.13v-2.78c0-.7-.52-1.22-1.22-1.22h-7.04v-37.04c0-.61-.52-1.22-1.13-1.22h-3.13l-9.48,8.52c-.26.26-.35.78-.17,1.3l.78,2.26c.17.52.87.7,1.39.43l5.56-2.78v28.61h-8.87c-.7,0-1.22.52-1.22,1.22v2.78c-.17.52.35,1.04,1.13,1.04M336.45,523.58c0-9.04,7.48-16.69,16.52-16.69s16.61,7.65,16.61,16.69-7.48,16.52-16.61,16.52-16.52-7.39-16.52-16.52M330.1,523.58c0,12.78,10.09,22.95,22.87,22.95s22.95-10.17,22.95-22.95-10.26-23.04-22.95-23.04-22.87,10.26-22.87,23.04M283.85,544.62c0,.7.61,1.22,1.22,1.22h4c.7,0,1.22-.52,1.22-1.22v-31.04h.09l27.65,32.95h1.65c.61,0,1.22-.52,1.22-1.13v-42.95c0-.61-.61-1.22-1.22-1.22h-4.09c-.7,0-1.22.52-1.22,1.22v30.17h-.09l-27.65-32h-1.57c-.61,0-1.22.52-1.22,1.13v42.86h.01ZM248.55,530.7l7.83-17.48h.35l7.83,17.48h-16.01ZM236.72,545.83h4.09c.78,0,1.3-.52,1.48-.96,1.3-2.96,2.61-5.83,3.91-8.78h20.87l3.91,8.78c.17.61.7.96,1.48.96h4c.96,0,1.48-.78,1.04-1.65l-19.48-42.86c-.17-.43-.7-.7-1.04-.7h-.7c-.26,0-.87.26-1.04.7l-19.56,42.86c-.43.87.09,1.65,1.04,1.65M206.64,544.62c0,.7.52,1.22,1.22,1.22h22.69c.7,0,1.22-.52,1.22-1.22v-3.56c0-.61-.52-1.22-1.22-1.22h-17.3v-37.56c0-.61-.61-1.22-1.22-1.22h-4.17c-.7,0-1.22.52-1.22,1.22v42.34h0ZM187.6,544.62c0,.7.61,1.22,1.22,1.22h4.17c.61,0,1.22-.52,1.22-1.22v-42.26c0-.61-.61-1.22-1.22-1.22h-4.17c-.61,0-1.22.52-1.22,1.22v42.26ZM129.17,544.44c-.17.96.35,1.48,1.22,1.48h4.09c.52,0,1.04-.43,1.13-.87l4.61-28.52h.26l11.56,29.39c.09.35.61.7,1.04.7h1.13c.61,0,.96-.35,1.04-.7l11.48-29.39h.17l4.7,28.52c.17.43.7.87,1.22.87h4.09c.96,0,1.39-.52,1.22-1.48l-7.83-42.86c-.09-.52-.61-.96-1.13-.96h-1.04c-.43,0-.96.26-1.13.7l-13.13,32.52h-.26l-13.3-32.52c-.17-.43-.7-.7-1.13-.7h-.96c-.52,0-1.04.43-1.22.96l-7.83,42.86h0Z"/>
  <path class="st0" d="M567.75,440.76c0-11.48,9.39-21.04,20.87-21.04s20.95,9.56,20.95,21.04-9.48,20.87-20.95,20.87-20.87-9.39-20.87-20.87M555.94,440.76c0,18.17,14.52,32.69,32.69,32.69s32.87-14.52,32.87-32.69-14.61-32.95-32.87-32.95-32.69,14.69-32.69,32.95M492.37,440.76c0,18.17,14.69,32.69,32.87,32.69,8.17,0,16-2.87,22.17-8.87.7-.61.87-1.83.09-2.43l-5.65-5.83c-.52-.52-1.48-.7-2.26,0-3.83,3.04-8.52,5.13-14,5.13-11.65,0-20.43-9.65-20.43-21.04s8.69-21.22,20.35-21.22c5.13,0,10.17,2,14,5.39.7.7,1.65.7,2.26,0l5.56-5.74c.7-.7.7-1.83-.09-2.52-6.17-5.56-12.78-8.52-22.08-8.52-18.08,0-32.78,14.69-32.78,32.95M468.46,470.84c0,.96.87,1.65,1.74,1.65h8.52c.87,0,1.74-.78,1.74-1.65v-60.34c0-.96-.78-1.74-1.74-1.74h-8.52c-.96,0-1.74.87-1.74,1.74v60.34ZM398.99,470.84c0,.96.78,1.65,1.74,1.65h8.35c.96,0,1.74-.78,1.74-1.65v-39.21h.09l38.08,41.82h2.17c.87,0,1.65-.7,1.65-1.65v-61.3c0-.96-.78-1.74-1.65-1.74h-8.43c-1.04,0-1.74.87-1.74,1.74v37.65h-.09l-37.91-40.26h-2.26c-.96,0-1.74.7-1.74,1.65v61.3h0ZM331.78,440.76c0,18.17,14.69,32.69,32.95,32.69,8.09,0,15.91-2.87,22.17-8.87.7-.61.78-1.83.09-2.43l-5.65-5.83c-.52-.52-1.57-.7-2.26,0-3.83,3.04-8.52,5.13-14,5.13-11.65,0-20.43-9.65-20.43-21.04s8.69-21.22,20.35-21.22c5.13,0,10.17,2,14,5.39.7.7,1.65.7,2.26,0l5.56-5.74c.7-.7.7-1.83-.09-2.52-6.17-5.56-12.87-8.52-22.08-8.52-18.17,0-32.87,14.69-32.87,32.95M281.96,470.84c0,.96.7,1.65,1.65,1.65h37.21c1.04,0,1.74-.78,1.74-1.65v-7.48c0-.96-.7-1.74-1.74-1.74h-26.95v-16h22.52c.96,0,1.74-.7,1.74-1.74v-7.56c0-.96-.87-1.74-1.74-1.74h-22.52v-14.95h26.95c1.04,0,1.74-.78,1.74-1.74v-7.39c0-.96-.7-1.74-1.74-1.74h-37.13c-.96,0-1.65.87-1.65,1.74v60.34h-.09.01ZM243.96,470.84c0,.96.87,1.65,1.74,1.65h8.43c.87,0,1.74-.78,1.74-1.65v-51.12h14c1.04,0,1.74-.78,1.74-1.74v-7.39c0-.96-.7-1.74-1.74-1.74h-39.82c-.96,0-1.74.87-1.74,1.74v7.39c0,.96.78,1.74,1.74,1.74h14v51.12h-.09,0ZM204.84,470.84c0,.96.78,1.65,1.74,1.65h8.52c.87,0,1.74-.78,1.74-1.65v-60.34c0-.96-.78-1.74-1.74-1.74h-8.52c-.96,0-1.74.87-1.74,1.74v60.34ZM156.15,470.84c0,.96.7,1.65,1.74,1.65h33.39c.96,0,1.74-.78,1.74-1.65v-7.48c0-.96-.78-1.74-1.74-1.74h-23.21v-51.12c0-.96-.78-1.74-1.74-1.74h-8.35c-.96,0-1.74.87-1.74,1.74v60.34h-.09ZM92.94,440.76c0-11.48,9.39-21.04,20.87-21.04s20.95,9.56,20.95,21.04-9.48,20.87-20.95,20.87-20.87-9.39-20.87-20.87M81.03,440.76c0,18.17,14.52,32.69,32.78,32.69s32.78-14.52,32.78-32.69-14.61-32.95-32.78-32.95-32.78,14.69-32.78,32.95M42.42,438.24v-18.35h10.52c5.13,0,9.39,3.83,9.39,8.87,0,5.39-4.26,9.48-9.39,9.48h-10.52ZM30.6,470.84c0,.96.7,1.65,1.74,1.65h8.43c.96,0,1.74-.78,1.74-1.65v-21.48h11.3c11.13,0,20.26-9.22,20.26-20.52s-9.13-20.17-20.35-20.17h-21.48c-.96,0-1.74.87-1.74,1.74v60.43h.1,0Z"/>
  <polygon class="st1" points="326.05 299.03 326.05 299.03 325.95 299.03 326.05 299.03"/>
  <path class="st0" d="M433.86,304.34c-2-.26-4.7-6.96-4.52-13.3,0-1.65.17-3.39.52-4.87,1.48-6.17,5.74-21.04,5.74-38.69,0-3.83-.17-7.74-.61-11.74-1.39-11.74-2.96-20.35-5.48-26.61h0c1.22-1.74,2.35-3.83,2.35-5.74,0-3.83-3.22-9.82-9.74-9.82-.61,0-1.22.09-1.83.17l-4.09,1.22c-3.39-2.52-6.61-2.78-8.78-2.78h-1.3c-.7,0-1.13-.09-1.3-.17-.09,0-1.39-.61-3.22-.61-.43,0-.87.09-1.39.17h-.09c-1.91-.35-3.74-.43-5.56-.43s-3.65.09-5.48.35c-.26-.43-1.39-2.17-3.91-4.09v-.78c-.09-2.09-2.09-5.39-2.09-5.39-5.13-8.61-13.04-11.74-14-12.17.26-1.04.52-2.96.52-3.91v-.43h-.26.26c0-.26.43-1.22.61-2.26v-.26c-.09-1.48-1.65-4.35-2.52-6.26-1.04-2.09-3.48-2.35-4.26-2.43-2.26-2.17-5.56-2.43-7.22-2.43h-1.04c-.17.09-4.26.96-5.22,1.74-.43.35-1.57,1.48-2.61,2.61-1.22-.7-2.52-1.04-3.65-1.04-2.87,0-4.96,1.57-5.3,1.74,0-.09-2.17.17-3.48.43-1.57.17-2.87.87-6,4.7-1.57,1.83-2,3.65-2,5.13,0,1.39.43,2.43.61,2.78-1.39.43-2.61,1.39-3.3,2-1.13,1.13-1.22,3.83-1.22,4.78h-.43c-2.61.17-4.87,1.57-4.87,1.65,0,.17-1.83.35-2.26,1.74,0,.17.09.35.09.35.17.52,1.13,1.57,2.87,1.57h.09c1.3.09,1.91-.35,2.09-.7.06,0,.09-.03.09-.09.52.7,4.09,4,4.17,4,.09.09,1.39.96,3.22.96.78,0,1.74-.17,2.61-.78,1.39-1.13,3.22-.78,3.91-2.35.61-.09,2.09-.43,3.04-.96.35-.17.87-.52,1.22-1.04h0c.09-.17,1.74-1.91,2.09-1.74v.09c1.3,3.22,1.65,6,1.65,8.26,0,4.52-1.65,6.96-1.65,6.96-.26.35-1.22,2.7-1.91,4.26-.35-.78-.96-1.22-1.3-1.39-.17-.7-.7-1.22-1.04-1.48v-.09c-.17-2.17-2.35-2.35-2-2.43-.52-1.39-2.35-2.09-2.35-2.09-.78-1.3-3.04-1.48-3.04-1.57h-.26c-1.04,0-3.13.87-3.74,1.04h-.87c-.52,0-1.13,0-1.83.35h-.7c-1.13,0-3.22.43-4.43,2.87,0,0-1.48,1.04-2.35,2.43,0,.09-2.35,6.96-2.7,9.56-.35,2.7-.17,1.91-.35,2.61-.09.61-3.56,3.65-3.56,6.17,0,.43.09.87.26,1.22-2,1.48-8.26,6.96-8.26,18.52,0,1.13.09,2.35.17,3.65-2.61-1.04-5.39-1.83-6.09-2-.43-.61-1.13-.78-1.48-.96-.52-.17-2.7-1.13-2.96-1.57-.78-.87-2.26-1.22-3.22-1.3h0c-.7-.52-2.35-3.83-3.04-6.52-.96-2.96-1.65-6.61-1.65-10.43v-.35l-.35-.17h.35c0-4.26-2.78-9.56-3.56-11.48-.09-.09-.09-.26-.17-.35l3.83-1.91c0,.35-.09.78-.09,1.13,0,.61.09,1.3.43,1.91,0,0,2.09,5.65,8.35,6.17.61,0,6,.26,6,.26h.17c1.3.7,2.87,1.57,4.7,1.57,1.04,0,2.09-.26,3.04-.96,0,0,1.65-.87,1.65-3.22,0-.17,0-.52-.09-.78.52-.35,1.22-1.04,1.3-2.26,0-.35-.09-.7-.35-1.13l-.43-.78,2.09-.35c.09-.17,1.65-.35,1.91-1.83,0,0,0-.17-.09-.35l-.43-.43s-2.78-.52-3.3-.52c-.26,0-3.48-.52-3.48-.52l-1.3.17-1.39-.35h0c-.52-1.57-3.22-3.48-4.09-4.17.43-.17.78-.52,1.04-.87.17-.87.17-2.35.17-3.04v-.35s0-.17-.09-.26c1.13-1.65,1.3-3.56,1.3-4.7l2.78,1.48c.09,0,2.09,1.22,3.48,1.22h.09c1.3-.09,1.65-1.22,1.57-1.57l.43-.52c.61-.26.87-.61,1.04-.96.35,0,1.04-.09,1.57-.35.26-.17.52-.43.7-.7.26.17.52.35.96.35.7,0,1.3-.7,1.39-1.48.43-2,2.26-6.35,2.61-7.39.17-.52.35-.78.52-.96.43.17.87.26,1.39.26h.35c2-.17,2.43-1.65,2.43-2.09,0-.09.43-1.48.43-2.87,0-1.48-.52-3.39-2.43-4.17-.43-.87-2.09-3.74-5.22-3.83h-.61c-.87-.61-4.26-2.78-8-2.78-.43,0-.96,0-1.39.09.09,0-2-.43-4.26-.43-2.43,0-5.56.35-6.17,2.87-1.39.26-5.74.96-6.26,3.39-.26,0-.61.09-.78.26-.7.35-2,1.39-2.09,2.96-2.35-1.04-4.61-1.22-5.74-1.22h-.7s-3.22-.35-6.69-.35c-1.83,0-3.74.09-5.22.43-4.09.96-9.22,1.91-11.48,3.22-2.26,1.39-4.26,5.39-5.74,6.17-1.65.96-4.52,2.09-5.39,5.48-.09.35-.17.87-.26,1.39-.7.17-5.22,1.74-9.48,9.48,0,0-2.87,3.48-3.83,4.26-.61.52-.7,1.3-.7,2.17,0,1.57.52,3.3,1.3,4.17.26.17.87.96,1.74,1.74-.35.52-.78,1.39-.78,2.61,0,1.3.35,2.96,1.65,5.04-1.3.96-4.26,3.91-5.3,12.52,0,0-.52,10.69-1.91,14.78-2.52,5.3-8.17,11.13-8.17,11.13-.09.09-.78.87-.78,2.09,0,.7.26,1.57,1.13,2.35l4.17,2.96c.09.09.17.09.35.09,0,.17.09.35.09.43.61,1.04,1.91,1.13,3.56,1.74,1.48.43,2.78.7,3.39.78.26.26.61.35,1.04.35,2.52.09,3.65,0,4.52,1.04.52.52,1.04,1.13,1.74,1.48.17.09.87.26,1.91.35-1.74,1.04-3.48,2.61-3.83,4.61-.09,1.04-.52,2.87-.52,4.7,0,2.7,1.04,5.65,5.22,5.65h.09l.43-.09s2.26-1.22,3.65-2.43c.17,1.04.61,3.83,1.91,5.48.09.09.09.17.17.17-.09.35-.26,1.48-.26,2.96,0,2.35.52,5.74,3.04,8.35-.35.35-1.04,1.22-1.13,2.43-.09,1.3-.09,3.65-1.04,5.74-1.04,2.17-2.96,6.87-3.04,8.61,0,0,0,.17.09.35.09.7.87,2.09,1.48,3.48.35.7.78,1.39,1.04,1.83.17.26.26.43.35.61,0,.09.09.09.09.17.35.78.78,1.13,1.3,1.48.35.09,1.22.26,1.65.26v-.09l.17-.17v.26h.09c.17,0,.7.09.96.09.09,0,.26,0,.35-.09.35-.17,1.3,0,1.65-1.22v-.61h0c.61-.52,1.39-1.3,1.57-2.35.09-.26-.17-.7-.61-.78-.35-.17-1.3-.43-1.74-.61-.7-.26-.96-.26-.96-.43-.26-.43-.35-.7-.35-.87v-.17c.17-.35.78-.96,1.22-1.22.26-.26,5.48-3.74,6.26-3.83h.09c1.04.26,2.87.7,3.39,1.3.96.87,8.17,6.96,10,7.83,1.48.7,7.91,4.61,11.39,5.04,3.13.35,8.78,1.57,11.13,2.17,1.22.35,3.22.7,5.13.7s4-.35,5.39-1.91c2.09-2.52,3.3-2.7,3.56-4.78.09-.87.35-2.78.35-4.7,0-1.48-.17-3.04-.87-4.17-1.39-2.35-2.7-3.91-2.7-3.91-.09-.09-.09-.17-.17-.17v-.09c.09-.52.17-1.04.17-1.48,0-2.52-1.39-4.26-1.48-4.7-.09-.35-.78-2.35-1.57-4.87-.43-1.39-.96-2.87-1.39-4.35.35-.35,1.83-1.57,3.3-3.13.52.52,10,10.69,14,11.56.09,0,.17.09.35.09,0,0,4.26-.09,8.26-1.48,3.13-1.04,5.22-2.96,7.3-2.87.61,0,1.3.09,2.09.52,0,.09.09.17.09.26.17.43.52.78.96,1.22l.52,7.91v.09c0,.43,0,1.91,1.22,2.35l-1.13,7.91-19.56,4.61c-.17,0-.26.09-.35.17,0,0-.09,0-.09.09-.09.17-.17.26-.09.52v4.87l.43.61,19.3,6.52h.35l35.3-10.35c.26-.09.43-.35.43-.61v-5.04c0-.26-.17-.52-.52-.61l-20.26-4.17-3.13.7-2.26-14.69.09-.09c.87-1.13,1.83-2.96,1.83-5.3,0-.61-.09-1.39-.26-2.09-.7-2.87-.96-4.43-.96-5.56,0-.87.17-1.39.35-2,.09-.61,6.69-8.61,11.13-16.61,0,2.78-.09,7.39-.09,9.48v1.13c0,.35.09,1.04.09,1.83,0,1.48-.17,3.48-.78,4.17-1.13,1.65-2.35,4.17-2.35,5.74,0,0,0,.17.09.43,0,.35.09,1.04.09,1.65,0,.78-.09,1.48-.17,1.74-.17.61-1.39,4.26-1.39,4.26,0,.09-.09.35-.09.7-.09.96.35,3.22,2.87,3.48,1.22.17,2.7.26,4,.26,1.83,0,3.48-.17,4.52-.61,1.39-.78,2.61-2,2.7-3.39,0-.17,0-.43-.17-.7-.61-1.22-1.74-1.91-2.35-2.78-.61-.7-1.3-2.17-1.3-3.04v-.26c0-.09.43-1.48.52-2.35v-.09h0v-.09c0-.17-.09-.7-.09-1.22,0-1.04.17-2.43.43-2.7.7-.96,5.48-8.26,5.48-8.26.09-.09,2.43-3.65,3.22-13.74v-.09c2.61-.17,4.52-.26,5.39-.26l-.17.52-2.35,5.04s-4,7.65-4.7,9.56c-.43,1.13-2.09,4.35-2.09,9.04,0,2.26.43,4.96,1.48,7.74l1.3,4.78c2.17,7.04,3.3,8.17,6.17,8.52h.17c-.26.96-.52,1.83-.7,2.17-.26.61-.87,1.65-1.13,2.87-.17.52-.26,1.13-.26,1.74,0,.17,0,.35.09.52.17,1.65.17,3.65,2.09,4,.26.09.52.09.78.09,1.04,0,2.17-.17,2.61-.26.52.17,1.91.7,2.87.7.43.09.96.09,1.48.09s1.13-.09,1.65-.35c.61-.43,2-.87,2.7-1.48.61-.52,2.43-1.83,2.52-3.48v-.09c-.17-1.74-2.96-5.39-2.96-5.56,0,.09,0,0,0-.17,2.61.52,10.26.78,18.26,1.22,2.61.17,2.87.09,5.22.17.35,0,.78.09,1.3.09,6,0,17.04-1.22,17.13-1.22.26,0,.52-.26.61-.52.96-.17.7-.43.43-.52M404.74,193.48c.09,0,.09-.09.09-.09h2.52c2.17,0,5.13.26,8.35,2.7l.61.09,4.26-1.3c.52-.09,1.04-.09,1.57-.09,5.65,0,8.52,5.3,8.52,8.61.09,3.39-5.13,8.43-5.13,8.43l-5.39,4.43c-1.3,2.43-6.35,5.22-8.43,6.52-12.26-3.39-15.65-8.43-15.65-13.39-.09-7.04,7.04-14.26,8.69-15.91M401.61,192.7c.78,0,1.48.17,1.91.26-2.26,2.26-8.69,9.04-8.78,16.26,0,5.48,3.83,10.87,15.39,14.26-1.39.7-2.78,1.04-4.17,1.04-.78,0-1.48-.09-2.35-.26-8.09-1.65-15.91-11.82-16-11.82-.09-1.13-.26-2.17-.61-3.04.09-.09.17-.26.17-.43,0-.09,4.09-12.69,11.3-15.56,1.22-.52,2.17-.7,3.13-.7M394.56,192.35c1.04,0,2.09.09,3.22.17-6.78,3.13-10.43,12.43-11.39,15.48-1.74-2.52-4.52-3.13-6.26-3.04-.96,0-1.57.09-1.65.09h-.09c-.61-.09-1.3-.09-1.57-.17-.26,0-3.22-1.22-4.26-1.3-.09,0-.87-.26-1.65-.52-1.04-.43-2.26-.96-2.43-1.13-.43-.26-.78-.26-1.22-.26h-.52c.7-.78,2.35-2.35,4.43-3.3.78-.17,11.82-6,23.39-6M378.57,221.65c-.35-.09-.61.17-.7.52h0s-.52,3.22-1.3,5.65c-.35.78-.52,1.3-.52,1.3-.35.61-.78,1.3-1.13,1.83-2.35,3.22-4.26,3.83-5.39,3.83-.52,0-.96-.09-1.13-.17l.7-.43c.26-.17.35-.52.17-.87-.17-.35-.61-.43-.87-.26l-1.22.78c-.06.06-.12.12-.17.17-.61-.26-1.3-.52-1.3-.52l-.7.09-1.22,1.22h-.17c-.87.17-2-2.52-2.35-3.48-.61-1.13-1.65-1.57-2.26-1.65-.17,0-1.39-.26-1.48-.26,0-.09-3.04-2.43-3.3-2.78-1.39-1.65-1.74-4.09-1.74-4.09-.17-1.13-.26-2.26-.26-3.13v-.87c.26-5.39,2.7-7.74,2.7-7.74l2.17-1.91s1.65-1.48,1.91-1.74c.17-.17,2.26-.96,3.22-1.48.17-.17,1.04-.35,1.91-.26h1.48c.7,0,3.74.7,3.83.78.26.09,2.87,1.65,2.87,1.65,0,0,.17.43.17.87,0,.26,0,.52-.09.78-.35.87-2.35,4.52-3.13,5.39-.43.35-.61.87-.61,1.3,0,1.04.87,1.65.96,1.83,0,0,.09.09.09.35,0,.17-.09.35-.09.52s-.78.7-1.13,1.57c-.17.43-.17.87-.17,1.39,0,.7.09,1.57.35,2.26.26.52.78.7,1.13.7.96,0,2.35-.78,2.61-.87.11,0,.23-.03.35-.09.87-.17,2.35-.43,2.96-1.57h0c.35-.17,1.13,0,1.91-.52.7-.61,1.57-2.09,1.83-2.35.43-.52.87-1.39,1.04-1.48.35-.35.61-.87.61-1.39,0-.26-.09-.43-.17-.7.09-.09.17-.17.35-.26.43-.43.52-.87.52-1.3s-.09-.78-.17-1.22c-.26-.7-1.48-2.35-1.48-2.61,0-.09.35-.87.61-1.39l-.35-.26h.35c-.26-1.04-1.04-1.22-1.48-1.48.09-.17.17-.52.26-.87l.09-.26v-.09h.52c2.26.09,6.09.61,6.43,6.69v1.91s-1.65,5.48-5.39,6.78c-.52.17-1.83.96-2,1.13-.09.09-.09.17-.17.17,0-.26.09-.52.09-.52.09-.26-.17-.52-.52-.61M372.3,235.3c-1.22,1.83-2.43,3.65-3.13,4.35-.61.78-2,1.39-3.13,1.91-.96.35-1.83.61-1.83.61l-12.09,1.39-.78.17c-.35-1.3-1.39-4.7-1.83-6.87,0-.17-.09-.35-.09-.61-.09-2.26,2.7-5.91,3.04-6.09.7-.52,1.13-1.48,1.3-2.09,1.13.96,3.22,2.61,3.22,2.61.35.09,1.57.43,2,.43,0,0,.87.26,1.13.96.43.61,1.04,4,3.48,4.17.17,0,.35-.09.52-.09l.35-.17,1.13-1.04c.61.17,1.74.78,2,.87.17.09.87.43,1.83.43.87-.26,1.83-.43,2.87-.96M350.83,214.61v-.17c0-.26-.09-.43-.09-.61v-.17c1.13-.87.96-2.35,1.65-3.3.26-.52.61-.78,1.22-.96,2.87-.78,2.17-3.3,3.22-3.22,1.65-.52,3.39-1.74,3.74-1.83h0v.09-.09l.09.09c.96-.09,3.13-.96,3.56-1.04.26-.09,1.04-.17,1.74-.26.52-.09.96-.09,1.3-.09h.52c.43.26,1.57.78,2.7,1.22.78.35,1.48.52,2,.61.52,0,3.48,1.22,4.26,1.39.26,0,.78,0,1.22.17.09,0,.26.09.35.09h0c-.09.17-.35.52-.35,1.13-.09.26.17.7.43.78.17.09.52.17.78.43.17.09.26.17.35.26h0s-.52.61-.61,1.39c0,0,0,.17.09.35.17.7,1.3,2.26,1.48,2.7.09.17.17.52.17.78s-.09.35-.09.35c-.26.26-.7.35-.87,1.22,0,.17.17.43.26.61v.09s-.17.43-.17.52c-.43.43-.87,1.22-1.13,1.57-.35.43-1.39,2-1.65,2.17,0,.26-1.57-.17-2.26,1.13l-.17.09c-.35.26-1.39.61-1.65.61h-.26c-.78.17-2,.87-2.52.78v.09c-.17-.43-.26-1.13-.26-1.74,0-.43.09-.96.09-1.04.09-.35.78-.78,1.13-1.57.09-.26.17-.61.17-.96,0-.43-.09-.78-.35-1.13-.26-.26-.7-.78-.61-1.04,0-.11.06-.26.17-.43,1.22-1.22,3.04-4.78,3.48-5.91.17-.35.17-.78.17-1.13,0-.78-.17-1.3-.52-1.74-.52-.52-2.78-1.65-3.39-2-.61-.26-3.39-.78-4.43-.87h-1.57c-.87,0-1.83,0-2.52.52-.7.43-2.61,1.13-3.22,1.48-.52.35-2.09,1.83-2.09,1.83l-2.17,1.91c-.09.09-2.61,2.52-3.04,7.65-.09-.09-.17-.35-.17-.52v-.09c.09-.35.09-.61.09-.61,0-.52-.17-1.13-.26-1.57M382.04,181.74s1.91,3.39,1.91,4.78c-1.39-.96-2.87-1.74-4.61-2.43-.35-.09-.7,0-.87.35-.09.35,0,.7.35.87,1.91.78,3.74,1.83,5.13,2.87,2.09,1.48,3.22,2.87,3.74,3.56-8.09,1.3-14.78,4.52-16.61,5.39-5.65-4.09-6.26-8-6.26-9.82,0-.52.09-.78.09-.78.26-.35.52-.61.78-.96.52-.7.61-1.65.61-2.43,0-.96-.17-1.91-.17-2.17h0c0-.09.26-.87.78-1.3,1.04-1.04.78-3.04.96-3.56-.09,0,.43-.43,1.04-.96.17-.35.26-.61.26-1.04,0-1.04-.43-2.61-.52-3.04v-.09c0-.35.09-.52.17-.87,1.04.52,8.43,3.65,13.22,11.65M347.87,156.7c.09,0,.17-.17.26-.17v-.09c1.04-1.13,2.26-2.35,2.61-2.7.26-.26,4.52-1.39,4.7-1.39.09,0,.35-.09.78-.09,1.57,0,4.7.26,6.43,2.17l.35.17c.09,0,2.96.26,3.48,1.74.87,1.91,2.43,5.04,2.43,5.74v.17c-.09.61-.61,1.39-.7,2.35v.35c0,.87-.26,3.3-.43,3.83-.09.17-.09.26-.17.35-.17.52-.43,1.13-.43,1.74,0,0,0,.17.09.43.09.61.52,2.09.52,2.87,0,.17-.09.17-.09.17-.26.43-1.04.7-1.22,1.74.09.43-.17,2.61-.43,2.61-.78.61-1.13,1.48-1.22,2.09v.09c0,.43.17,1.22.17,2.26,0,.7-.09,1.39-.35,1.65-.17.26-.43.52-.61.61-.26,0-.78,0-1.22.43l-.7.43-.26.35s-.17.7-.35,1.39c-.09.17-.09.52-.17.7-.35-.43-.7-1.04-.96-1.39l1.22-4.35.61-5.83v-.26l4.43-7.04c.09-.35.09-.43.09-.43-.09-1.04-.35-3.13-1.22-4-.43-.35-2.09-2.35-2-2.52-.09-.7-.61-2.78-.61-2.78-.09-.26-.17-.43-.35-.43-.17-.09-.43,0-.61.09,0,0-3.3,2.78-3.91,3.04,0,0-.35.09-.7.09-.96,0-2.26-.26-2.78-.26h-.09c-.87.09-2.35.35-2.96,1.48-.35.61-1.65,3.04-1.91,3.39-.52.87-.87,3.04-.87,4.43,0,.43-.17.78-.52,1.22-.26.43-.52.78-.78,1.3-.09.26-.17.52-.17.87,0,.78.26,1.39.43,2.35v.96c0,1.13-.17,2.52-.26,2.96,0,0-.09,0-.17.09-.17.09-.43.09-.61.09h-.17c-.26,0-.52.09-.78.17.09-.35.17-.7.17-.87v-.17c-.09-.96-1.22-3.22-1.39-4-.26-.7-1.04-6.78-1.04-8.17v-.09c0-1.13,1.39-4.96,1.57-5.83.09-.52,1.13-3.56,1.74-4.7.17-.26.61-.87,1.13-1.39M359.44,172.7s.35.17.78.43l-.09.35c-.09.35.09.7.43.78.35.09.7-.09.78-.43v-.26c.43.17.96.26,1.48.35l-1.74,2.7c0,.09-.09.09-.09.09-3.04,2.35-6.87,2.43-7.56,2.43h-.17c-2-.43-3.65-5.65-3.65-5.65,0,0,0-.09-.09-.09.17-.35.35-.78.35-1.3,0-.96.52-3.56.61-3.65.35-.61,1.65-2.78,2.09-3.65,0-.35,1.3-.78,1.83-.78.43,0,1.83.26,2.87.26.43,0,.87,0,1.3-.17.61-.35,2.26-1.74,3.3-2.52.09.61.35,1.48.35,1.74.26,1.13,1.74,2.61,2.35,3.3.17,0,.87,2.52.78,2.96v.17l-1.91,3.04h-.09c-1.74-.09-3.48-1.13-3.48-1.13-.26-.17-.7-.09-.87.26,0,.17.09.61.43.78M333.35,181.74c.09.7-1.39.61-3.48,1.91-.61.43-1.3.52-1.91.52-.7,0-1.22-.17-1.74-.35-.43-.17-.7-.35-.7-.35h0s-3.83-3.65-3.91-3.83c-.26-.35-.61-.52-.96-.52-.43,0-.78.17-1.04.52-.09.09-.17.17-.17.17v-.09c-.09.09-.43.09-.96.09h-.09c-.87,0-1.3-.35-1.57-.7.43-.26,1.39-.7,1.39-.7.09-.09,2.35-1.39,4.52-1.48.35,0,.7-.09,1.04-.09.61-.09,1.04-.09,1.57-.09.78,0,1.39.17,2.35.7l2.17,1.3.09.09.7,1.22c.17.35.52.43.87.26.26-.26.43-.61.17-.87,0,0-.52-.87-.96-1.57-.26-.43-.52-.78-.52-.78-.09-.17-.09-.26-.09-.26,0-.11.06-.23.17-.35h.35c.09.09.17.09.17.09.09,0,.61.7,1.48,1.39.87.78.26-.52,1.04,2.52.09.43.09.7.09.96v.26h-.09l.02.03h0ZM337.87,179.57c-.26.35-.61.61-.87.78-.52.26-1.57.52-2.35.7,0-.26-.09-.52-.17-.87-.52-2.61-.78-2.78-1.48-3.22-.78-.52-1.22-1.13-1.39-1.39-.26-.17-.61-.35-1.3-.35-.35,0-.78.09-1.04.61-.26.35-.35.7-.35,1.04v.09l-.7-.43c-1.04-.7-2.09-.87-3.04-.87-.35,0-.61,0-.96.09.09-1.04.35-3.39.78-3.65.7-.61,2.09-1.65,3.3-1.83.17,0,.35-.09.52-.09.26,0,.52.09.78.09,1.83.78,7.04,3.22,8.17,5.91.35.87.52,1.48.52,2.09-.09.52-.26.96-.43,1.3M341.96,194.52c.09-.09,1.83-2.78,1.83-7.65,0-2.17-.35-4.7-1.39-7.65v-.09l-1.83-7.22c-.09-.35-.35-.52-.78-.43-.35.09-.52.43-.43.78l1.3,5.04c-.52.09-.87.35-1.3.61,0-.7-.17-1.39-.61-2.26-1.57-3.48-6.96-5.83-8.78-6.61-.43-.17-.78-.26-1.22-.26h-.09c0-.06-.03-.12-.09-.17h0s-.52-.96-.52-2.35c0-1.22.35-2.7,1.74-4.26,3.22-3.83,4.09-4.17,5.22-4.26,1.39-.17,3.74-.52,3.74-.52.26-.09,2.35-1.57,4.87-1.48.96,0,1.83.17,2.87.7-.35.43-.7.87-.87,1.13-.78,1.39-1.74,4.26-1.91,5.04-.09.61-1.57,4.43-1.65,6h0c0,1.57.87,7.56,1.22,8.61.26.87,1.39,3.39,1.3,3.65v.09c-.09.35-.35,2.09-.35,2.09-.09.26.09.52.26.61.17.17.43.17.7.09,0,0,.26-.17.7-.43l.52-.26c.17-.09.17,0,.17,0h.17c.35-.09,1.48.09,1.91-1.13.09-.61.35-2,.35-3.22,0-.35,0-.78-.09-1.13-.17-1.04-.35-1.74-.35-2.17,0-.17,0-.26.09-.43,0-.09.09-.17.17-.26.52,1.57,1.91,4.87,4.52,5.65h.26c.7,0,4.17-.09,7.39-2.09l-.43,4.61-1.3,4.52.09.52c.09.09.96,2,2,2.52h.26c.09,0,.17,0,.35-.09.78-.43.61-1.04.96-1.74.17-.52.26-1.04.35-1.22l.52-.35h0v.43c0,2.09.78,6.26,6.26,10.43-2.78,1.48-4.52,3.74-4.61,3.83s-.09.26-.09.43c-.52.09-1.04.09-1.22.17-.78.17-2.96,1.04-3.39,1.04h-.09c-1.22.17-2.43,1.39-4.09,1.83-2.35,1.04-1.3,3.04-3.04,3.22-.96.26-1.65.87-2.09,1.57-.7,1.39-.96,2.87-1.13,2.87-.43.17-.7.7-.7,1.04l-7.13-3.39c0-.17-.09-.43-.09-.61,0,0,0-.26.09-.35.09-.35.17-.61.17-.78,0-.78-.35-1.39-.61-1.83.17-.17.17-.26.17-.52v-.09c-.17-1.04-1.04-1.57-1.57-1.91v-.26c0-.35-.09-.7-.17-1.13-.26-.43-.61-2.17-.61-2.17,0-.09-.09-.35-.09-.7,0-.61,2.17-5.48,2.17-5.65M329.01,190.26c.09,0,2.09.35,2.52,1.22.26.26,2,1.22,1.91,1.57.78,1.57,2.09,1.04,2,2.09v.26l.35.61s.87.7.87,1.13l.43.52s.87.26,1.22,1.57c0,.17.35,1.48.35,1.48,0,.17.35,1.83.78,2.61,0,.09.09.26.09.43v.52c0,.17,0,.52.43.7,0,0,.35.26.7.61.17.09.26.26.35.35-.17,0-.17.09-.17.09-.26.26-.26.61,0,.96,0,0,.7.78.7,1.48,0,.17,0,.26-.09.35-.09.26-.17.52-.17.78,0,.78.17,1.3.17,1.74,0,.35-.09.61-.61,1.04-.09.09-1.13,1.13-2,1.48-.52.17-1.04.26-1.39.26-.09,0-.09-.09-.09-.09-.09-.17-.26-.52-.43-.78-.52-.87-1.57-.96-1.65-3.74v-.26c.87-.43,1.83-.87,2.52-1.48.43-.43.43-.87.43-1.3,0-1.04-.52-2.52-.61-2.87v-.17c-.09-.78-.52-4.09-.52-4.43,0-.09-.09-.09-.09-.17l.17-.35-.17-.7s-.78-.52-1.83-1.22c0-.09.09-.17.09-.17-.09-.52-.35-1.48-1.3-2.26-.87-.78-2-1.48-2.26-1.65-.17-.17-1.65-1.39-1.65-1.39-1.04-.35-1.83-.52-2.52-.52.52-.09,1.22-.26,1.48-.26M333.27,236.87c.09,0,2.7,1.65,2.87,2.52.17.43.26,1.04.26,1.65,0,1.04-.26,1.74-1.39,2.17.09,0-.61.09-1.39.17-.43.09-.96.09-1.3.09-.09-.43-.43-.96-1.13-1.22-.26-.09-.61-.17-.96-.17-.43,0-1.04.17-1.57.52-.52.35-2.96,1.83-3.39,2-.61.26-1.74.09-2.35,1.13-.09.17-.35.87-2.7,2.17l-8.26,1.83c-1.65-2.78-6-9.04-6.43-9.56v-.09c-.17-.26-.43-.52-.78-.7v-.09s-.26-1.13-.26-2.35c0-1.04.26-1.83.61-1.91.17-.09.26-.17.43-.35.26-.26.87-.78,1.22-1.22.52-.61,1.91-2.09,2.17-1.91,1.13-.17,1.91-.96,2.52-1.65.52-.61,1.91-2.26,3.65-2.26.17,0,.35,0,.52.09,2.52.35,8.43.78,8.61,1.04.96.61,3.91,2.87,5.04,3.13.26,0,.7,0,1.22.09.87.17,1.83.52,2.17,1.65.26.26.7.7.7,1.3,0,.26-.09.61-.43,1.13-.09.17-.09.35-.09.52.26.09.35.26.43.26M326.4,253.21c-.17.26-.43.61-.52.61-.17,0-.43.09-.52.17-.09-.09-.17-.17-.26-.26l-.87-.7c-.26-.26-.7-.17-.87.09s-.17.7.09.87l.78.61c-.06.06-.12.09-.17.09-1.04.35-1.04.96-1.74,1.04-.35.09-.61.09-1.04.09-1.74,0-4.17-1.13-4.7-1.83-.87-1.04-1.74-2.78-1.74-2.78-.09-.35-.52-.43-.78-.26-.26.09-.43.52-.26.78,0,0,.17.26.26.52-.09,0-.17,0-.26.09l-.7.52c-.17-.7-.26-1.39-.52-2.09l8.09-1.83c2.52-1.3,3.22-2.26,3.39-2.78h0c.26-.17,1.04-.35,1.57-.52.87-.35,2.96-1.65,3.74-2.17.35-.17.52-.35.78-.35.17,0,.35,0,.61.09.09,0,.26.61.35.78-.43,2-1.83,2.78-1.83,2.78l-.35.61s-.09,3.22-.17,4.43c0,.17-.09.26-.7.26-.35,0-.7-.09-.78-.09-.09-.09-.43-.17-.7-.26-.17-.09-.35-.17-.43-.26h0c-.09-.26-.26-.52-.61-.52,0,0-.61.17-.61.61h0c.43,1.13,1.04,1.48,1.48,1.65M325.27,210.26c-.09-.61-.35-1.13-.52-1.65,1.48.43,4.61,1.04,9.04,1.13,0,2.96,1.83,4.09,1.83,4.26h0c-1.3,3.83-5.22,4.7-8.26,4.7-1.39,0-2.52-.17-3.04-.26.87-1.83,1.13-4,1.13-4.09.09-.52.09-1.04.09-1.48.09-.87-.09-1.65-.26-2.61M333.35,195.74c-.35-.17-.78-.43-1.04-.52-.35-.17-.35-.26-.35-.26,0-.09.09-.17.17-.35.26.17.52.35.7.52.26.17.35.43.52.61M326.83,191.92c.7,0,1.39.09,2.35.35-.09.09,1.22,1.13,1.48,1.39.09.09.26.17.43.26-.17.26-.43.61-.43,1.13,0,.61.43,1.13,1.13,1.39,1.04.43,2.96,1.74,3.74,2.26-.17.35-.61.87-1.65,1.39-.26.17-.43.52-.17.87.09.17.26.35.52.35.09,0,.17,0,.26-.09.52-.26.96-.61,1.3-.87.09.43.09.87.17,1.3-.09,0-.17,0-.26.09-.96.61-2.87,1.13-2.87,1.13-.35.09-.52.43-.52.78.09.35.43.52.78.43h-.09c.09,0,1.83-.35,3.13-1.13.09.43.09.7.09.7v.17c.09.61.61,1.91.61,2.87,0,.35-.09.35-.09.35-.7.52-1.83,1.13-2.78,1.57-6,0-9.39-1.22-9.91-1.39-.43-1.22-.61-2.35-.61-3.04v-.35c0-1.3-.7-2.78-1.3-3.65-.7-.87-1.3-1.57-1.3-2.7v-.43c.09-1.57,1.83-4.17,2.09-4.17.87-.35,1.91-.96,3.91-.96M313.27,208.18c.26-.7.09-.35.43-2.78.26-2.26,2.61-9.22,2.61-9.22.52-1.04,2.09-2.17,2.09-2.17,1.22-2.17,2.61-2.43,3.48-2.43.35,0,.61.09.61.09h.35c.17-.09.26-.09.43-.17l-.7.35c-1.3.61-2.52,3.04-2.87,5.04v.61c0,1.65,1.04,2.7,1.57,3.39.52.7,1.13,2.09,1.04,2.96v.17c-.09,0,0,.17,0,.17,0,1.3.35,3.13,1.13,4.87.17.43.35,1.04.52,1.65.26.87.26,1.57.26,2.17,0,.43,0,.87-.09,1.3.09,0-1.13,5.04-2,5.22-.17.09-.87.17-1.65.17-1.3,0-2.96-.17-4.35-.43-.7-.09-1.3-.35-1.74-.52-.35-.17-.43-.26-.52-.26-.52-1.39-1.48-1.74-3.91-3.48-.35-.26-.35-.43-.43-.78.09-1.74,3.13-4.7,3.74-5.91M309.79,216c2.26,1.57,2.78,1.83,3.04,2.7.96,1.65,4.87,1.91,7.74,2,.96,0,1.65-.09,2.17-.26.35-.17.7-.52.96-.96h0s1.65.35,3.74.35h.09c.78,0,1.57-.09,2.35-.17l.17,10.96h-.61c-.09.09-3.74-2.26-4.35-2.87-1.3-.78-6.61-.87-9.13-1.3-.26-.09-.52-.09-.7-.09-2.61,0-4.09,2.09-4.61,2.7-.52.52-1.3,1.13-1.74,1.22-1.3.17-2.35,1.83-2.96,2.35l-1.22,1.22c-.17.17-.26.17-.26.17-1.13.52-1.22,1.91-1.22,3.04,0,.52.09,1.04.09,1.48-.43-.26-.87-.43-1.3-.7-.17-1.48-.26-2.87-.26-4.17,0-11.65,6.43-16.61,8-17.65M294.66,236.61c1.65.52,6.78,2,9.13,3.56l.09.09c.35.26.61.43.78.7h0c.7.87,6.26,8.96,6.69,10.17-3.74-3.83-10.35-6.35-10.43-6.43-.35-.09-.7.09-.78.35-.17.35,0,.7.35.78h0s10.17,4.17,11.65,8.69c.17.78.35,1.3.35,1.3,0,.09.61,2.26.61,2.43-.17,2.35-1.39,9.39-6.43,10.69.78-1.65,1.39-3.56,1.39-5.74,0-3.04-1.22-6.43-4.35-10.43-.17-.26-.61-.35-.87-.09-.26.17-.35.61-.09.87,3.04,3.83,4,6.96,4,9.65,0,2.35-.78,4.35-1.74,6.09-1.3,2.09-4.78,4.87-9.56,5.56h-.35c-1.74,0-2.96-.52-3.74-1.04s-1.22-.96-1.22-.96c-.09-.09-.17-.17-.26-.17.78-1.65,1.65-3.65,1.91-4.96,1.22-.17,4.35-.78,4.7-3.22.09-.43.09-.96.09-1.65,0-2.35-1.57-5.22-10.87-8.78,1.04-.87,3.39-2.35,7.39-2.35,0,0,2.61-.09,4.61-.09.35,0,.61-.26.61-.61s-.26-.61-.61-.61c-2.09,0-4.61.09-4.61.09-6,0-8.78,3.04-8.96,3.39-.52.35-4,2.78-5.83,6.69-.87,1.91-1.83,4.09-2.52,6.52-2.87-1.83-8.87-8-11.56-10.87-.87-.96-1.39-1.48-1.39-1.48-.26-.26-.61-.26-.87-.09-.26.26-.26.61-.09.87,0,0,.35.35.87.96-.78.35-2.17,1.13-3.56,2-.35-.17-1.13-.7-2.09-1.39-.52-.43-.61-.7-.61-1.74,0-.52.09-1.13.09-1.91,0-.43,0-.96-.09-1.48v-.17c-.26-2.52,5.3-4,6.78-4.17,1.65-.17,7.83-1.74,7.83-1.74l2.78-1.22s0,.09.09.09h.17c.17-.09.26-.17.35-.26l2.43-1.04c0,.09.17.09.17.17.52.52,1.22,1.39,1.91,1.91.61.52,1.3.52,1.91.52.35,0,.7-.09.96-.09,1.04-.17,2.17-1.04,2.26-1.04.96-.61.61-1.74.78-2.26,0-.52.35-2.26.43-2.61s.52-1.48.61-1.83c.26-.26,1.13-.61,1.65-.78.35-.26.78-.52.78-.52h.09c.09,0,.35.17.52.17.26.09.52.26.52.26.17.09.78.26,1.83.26.61,0,1.48-.09,2.35-.35.35-.26.78-.43.96-.7M286.23,287.99c.52.09,3.04,1.65,3.13,1.83.26.17,1.74,1.74,1.74,1.74.35.7.87,1.04.96,1.13.61.26,1.74,1.13,1.83,1.13,0,.09,2.61,3.22,2.87,3.56.09.09.17.17.17.35h-.09l-3.48-2.17-2.78-1.04c-.26-.09-.61,0-.78.26s-.09.61.17.78c.96.78,2.26,3.22,2.26,3.22,0,0,.87,2,1.3,3.04.09.17.09.35.09.35,0,.11-.12.23-.35.35-.17,0-.61-.43-.61-.43l-1.39-2.43-2.96-3.91-.09-.09c-.26-.17-.61-.17-.96.09-.17.17-.17.43-.09.61l.52,1.74.7,1.65.7,2.52s.52,1.83.7,2.26h0s-.09,0-.09.09c-.26-.09-.61-.17-.61-.17l-2.61-5.83h0v-.09h0v-.09h-.09c-.09-.09-.26-.09-.35-.09-.35,0-.61.17-.61.52h0s-.09.61-.09,1.39c0,0-.17.35-.61.52-.43.35-.96.52-1.04.52-.35.09-1.04.17-1.57.87v-.09c0-.26.09-.52.09-.52l.09-.09c.35-.17.96-.52,1.3-.87.17-.26.17-.52.17-.7,0-.7-.35-1.57-.52-1.91-.43-.87-2.17-1.74-2.26-1.91-.26-.26-2.26-1.91-2.26-1.91-1.3-.96-2.09-4.43-2.43-8.52v-.35c-.26-2.61-.26-5.39-.35-8v-1.04c0-2.96.43-5.65,1.04-8,.7-2.7,1.65-4.96,2.61-7.04,1.48-3.13,4.43-5.48,5.3-6.09,9.82,3.65,10.69,6.17,10.69,7.83,0,.52-.09,1.04-.09,1.57.17,1.3-4.09,2.17-4.09,2.17-.35.09-.52.35-.61.61,0,.96-1.39,3.91-2.26,5.65-.43.87-.7,1.48-.7,1.48l-1.83,3.83c0,.09-2.61,6-2.78,7.48-.09.09,0,.17,0,.17-.09,1.91,2.35,1.74,2.96,2.09M245.97,243.74h.52c0-2.43-1.74-11.82-1.74-18.08,0-5.91,3.39-9.65,3.74-10,1.48.09,3.04.09,4.52.09,6.87,0,12.69-.78,14.26-.96.61,2.26,1.39,3.91,2.09,5.13l-.09.09h0s-.09.96-.09,2.61c0,2,.17,5.13.96,8.87,1.13,5.48,2.61,10.43,3.04,12.09l-2.43,1.04c.09,0-6.17,1.48-7.65,1.65-1.57.26-7.65,1.22-7.83,5.39v3.56c0,1.04.17,2.09,1.04,2.78.7.52,1.3.96,1.74,1.22-.78.52-1.48,1.13-2,1.74-1.39,1.65-2.61,3.39-3.13,5.13-1.04-.7-3.74-2.52-4.7-2.7-.26,0-1.39-.17-2.61-.35v-.17c-.87-2.09-1.04-4-1.04-5.83,0-2.26.43-4.09.7-5.3.7-3.3,1.22-6.61,1.3-8h-.61,0ZM276.14,242.35l-1.83.78c-.52-1.83-1.91-6.61-3.04-11.82-.78-3.65-.96-6.69-.96-8.69v-.96c.26.35.52.7.52.87.7,1.3,4.17,6,4.26,6.09,0,0,2.26,6.09,2.17,6.17.09,0-1.22,2-1.65,4.17-.09.35-.09.61-.09.96.09.96.26,1.83.61,2.43M302.31,199.65c.09.26.35.61.43.87-.35.17-1.3.52-1.74.43h-.17l-.7-.35c-.26-.17-.7,0-.87.35-.09.26,0,.7.26.78l.7.35c.26.09.52.09.78.09,1.04,0,2.09-.52,2.61-.78.26-.26.43-.52.43-.78,0-.35-.17-.7-.35-.96l.35-.09s2.87.43,3.39.52c.17,0,1.39.17,2.26.35h-.09c-.26.17-.61.26-.61.26l-2.87.43c-.17.09-.35.09-.43.35-.09.17-.09.35,0,.61l.96,1.48c.09.17.09.35.09.43.09.61-1.04,1.39-1.04,1.39l-.26.61c.09.35.09.7.09.96,0,1.74-1.04,2.09-1.04,2.09-.87.61-1.65.78-2.43.78-1.57,0-3.22-.87-4.52-1.65-.52-.26-.96-.52-1.39-.78-1.04-.43-1.13-1.04-1.13-2.09v-1.65h0v-.35c0-1.65.7-3.13,1.13-3.65.17-.26,1.91-1.04,2.52-1.3l1.83.52,1.83.78h-.02,0ZM299.62,197.65l-.96-.26h-.26c-.09.09-2.43.78-3.22,1.83-.61.78-1.39,2.35-1.39,4.43v.17c-.09,0,0,.09,0,.09v1.74c-.09.96.17,2.09,1.13,2.87-1.57-.09-3.39-.17-3.65-.17-5.48-.35-7.3-5.48-7.3-5.48-.17-.35-.26-.87-.26-1.39,0-.78.17-1.65.26-1.83l3.22-1.65c-.09.09,5.65-1.91,8.78-3.3l.09-.09c.09.09.09.17.17.26.09-.17,2.35,1.65,3.39,2.78M297.1,189.05c-.26.35-.61.7-1.04.87l-3.22,2.17c-.26.26-.35.52-.17.87.17.26.61.35.87.17l3.22-2.09c.17-.09.26-.17.43-.35,0,.7-.09,1.48-.17,1.91-.26.17-.87.52-1.65.87-3.04,1.39-8.78,3.39-8.78,3.39l-3.91,1.91-4.26,2.09c2.35-2.52,3.3-6.87,4-8.78.61-1.74,1.57-1.91,3.13-2.7.96-.52,2.09-1.65,3.3-3.22.17.17.35.17.52.17h0l8.96-2.35v.61c.17,1.04-.09,3.04-1.22,4.43M315.27,174.27c-.35.96-2.17,5.3-2.7,7.48l-.17.61-.35-.17c-.09-.09-.26-.17-.26-.17-.17-.17-.52-.26-.7-.09h0c-.09,0-.09.09-.17.09h0s-.7.7-.87.87c0,.09-.61.09-.96.09l-1.04-1.13c-.17-.26-.61-.26-.87,0-.35.17-.35.61-.09.87l.87.96c-.09.09-.17.17-.26.26v.09c-.7.26-1.22.7-1.39,1.57-.09.43.17.26-.35.43h0c-.61,0-2.87-1.13-2.87-1.13l-3.65-1.91-.52-.26-.43-.09-8.69,2.26c.61-1.04,1.13-2.26,1.57-3.48.35-1.04.52-2.26.52-3.39,0-.7-.09-1.3-.17-1.91.17.26.35.43.35.52.26.78.96.78,1.39.78.7,0,1.39-.17,2-.09.35,0,.52,0,.61.09.52.26.96.26,1.57.26,1.57,0,3.65-.52,3.65-.52,2.17-.09,3.65-1.65,4.26-2,.7-.52,2-1.57,2.26-1.65h.43c.61,0,1.22-.26,1.91-.96.61-.61.78-1.48.87-2.17l1.65,1.22c1.74,1.13,2.35,1.13,3.13,1.48-.17.52-.35.87-.52,1.22M287.01,165.57s.17-.09.43-.09c.26-.09.52-.09.52-.09.35-.09.52-.35.52-.7v-.35c0-.35,1.22-1.22,2.7-1.65s3.04-.7,3.04-.7c.35,0,.52-.26.52-.61,0-1.48,2.35-2.17,4.96-2.09,2.17,0,4.17.35,4.17.35.61-.09,1.04-.09,1.48-.09,1.91,0,3.74.7,5.22,1.39,1.39.7,2.35,1.39,2.35,1.39l.52.09c.26,0,.43-.09.61-.09,2.61-.09,4.17,3.39,4.17,3.39l.43.35c1.39.43,1.83,1.65,1.83,3.04,0,1.22-.35,2.35-.43,2.7-.17.43.26.61-1.39,1.04h-.26c-.35,0-.87-.17-1.39-.35-1.65-.7-1.65-.35-3.65-1.65l-2.52-1.91c-.17-.17-.52-.17-.7-.09-.17.17-.35.35-.35.61v.43c.09.61-.09,1.65-.52,2-.7.61-.78.61-1.04.61h-.26c-1.22.09-2.26,1.39-2.96,1.74-.96.61-2,1.74-3.74,1.83-.09,0-2.09.43-3.48.43-.52,0-.96-.09-1.04-.09-.43-.26-.78-.26-1.22-.26-.7,0-1.48.17-2,.17h-.35c-.26-.7-.96-1.65-2.09-2.35-.09-.17-.17-.43-.26-.61-.7-1.48-1.83-2.87-3.39-4.09-.52-.43-1.13-.78-1.74-1.13v-.09h0c-.09-.17-.09-.35-.09-.35-.09-.96.96-2,1.39-2.17M278.66,167.66c.09,0,.17-.09.26-.09,1.22.09,3.48.35,5.74,1.48.7.35,1.3.7,2,1.22,1.39,1.04,2.35,2.35,2.96,3.65.7,1.39.96,2.78.96,4.26,0,.96-.09,2-.43,2.96-.43,1.48-1.22,2.87-1.91,4-1.13,1.65-2.52,2.96-3.13,3.22-1.22.61-2.96,1.04-3.74,3.39-.7,2.09-1.83,6.78-3.83,8.52.09-.17-.43.26-.35.96,0,.17,0,.43.09.78.09.26.17.7.35,1.13.87,2,3.48,7.22,3.48,10.96.09,0,0,.09.09.26-.09-.09-.09.09-.09.09,0,4.09.78,7.83,1.65,10.96,1.22,3.22,2.43,6.87,4.17,7.39.61,0,2.09.52,2.35.96.78.78,2.78,1.57,3.39,1.91.17,0,.61.26.78.43-.09.09-.17.09-.35.17-.7.26-1.39.35-1.91.35-.87,0-1.39-.17-1.39-.17.09.09-.7-.52-1.57-.52h-.26c-.61.17-.96.61-1.13.7-.09.09-1.22.35-1.91,1.04-.09.09-.09.17-.17.17h0v.17c-.09.09-.09.17-.09.17-.17.61-.43,1.39-.61,1.74-.17.52-.43,2.09-.43,2.87,0,.7-.17,1.3-.17,1.3-.09.09-1.39.87-1.65.87h-.87c-.52,0-.96-.09-1.13-.26-.52-.43-1.22-1.39-1.91-1.91-.09-.09-.17-.26-.35-.35-.35-.52-.78-1.3-.78-2.35,0-.26,0-.52.09-.7.35-2,1.48-3.3,1.65-4.35v-.09c-.09-.96-2.35-6.69-2.35-6.78-.09-.17-3.65-5.04-4.17-6-.52-1.04-2.43-3.04-3.74-8.17-.43-1.74-.78-3.74-1.04-6.26,0-.17-.35-1.13-.35-3.22v-.78c0-.61.09-1.22.17-1.91.52-3.91.35-9.13.43-10,0-.17.09-.61.09-1.22.26-1.83.78-5.13,1.65-7.39,1.04-2.87,5.48-10.17,5.48-10.17.17-.35.09-.7-.17-.87-.09-.09-.17-.09-.26-.09-.26,0-.43.09-.52.35,0,0-4.35,7.22-5.56,10.43-.87,2.17-1.3,5.13-1.57,7.04h-.09c-.35.09-.7.17-1.13.17-2.26,0-5.04-2.7-7.56-5.91-.87-1.22-1.22-2.17-1.22-3.13,0-2.26,1.83-4.78,4.78-7.91,3.13-4,14.78-5.39,17.3-5.48M243.28,191.66c0-.78.43-5.13.96-8.26.09-.78.26-1.39.35-1.91.7-2.7,2.96-3.65,4.87-4.7,2-1.22,4-5.13,5.74-6.17,1.74-1.13,7.04-2.17,11.13-3.04,1.3-.26,3.13-.43,4.96-.43h1.22c-4.35.78-9.74,2.26-12.26,5.04-2.96,3.22-5.13,5.83-5.13,8.78,0,1.3.52,2.61,1.48,3.91,2.61,3.22,5.39,6.35,8.52,6.35.35,0,.7,0,1.04-.09,0,.26,0,.43-.09.61-.09,1.04.09,6-.43,9.91,0,.43-.09.96-.09,1.39h-.09s-.17.09-.35.26h0l-5.65-1.91c-.96-.26-6.26-2.43-7.74-2.61-.87,0-3.83-1.13-4.87-1.91-1.04-.52-3.48-4.35-3.56-5.22,0,.09,0,0,0,0M231.28,201.74c-.35-.17-.96-2-.87-3.22,0-.7.17-1.13.26-1.22,1.13-1.04,4-4.43,4-4.43,3.48-6.26,6.87-8.17,8.17-8.78-.43,2.96-.78,6.43-.87,7.39v.26c.17,1.57,2.61,5.13,4.17,6.26,1.39.87,4.17,2,5.56,2.09.87,0,6.35,2.26,7.39,2.52l4.78,1.57c-1.39,1.04-3.65,2.61-6,4.17-.96.61-1.83.87-2.52.87-2.43.09-4.61-2.17-6.17-3.3-.78-.52-1.83-.78-2.87-.78-2.35,0-5.22.78-7.74,1.22h-.61c-1.65,0-3.22-1.04-4.35-2.17l-.09-.09-.17-.17c-1.04-.87-1.65-1.74-2.09-2.17M232.58,207.13c0-.78.17-1.39.43-1.74,1.22,1.13,2.96,2.17,4.96,2.17.26,0,.52,0,.78-.09,2.7-.43,5.56-1.13,7.56-1.13.96,0,1.65.17,2.09.52,1.48,1.04,3.83,3.48,6.96,3.56.96,0,2.09-.35,3.22-1.04,2.87-1.91,5.56-3.83,6.87-4.7l.09-.09c0,2.09.35,3.3.43,3.3.17,2.09.52,4,.87,5.65-1.74.26-7.39.96-14,.96-1.57,0-3.22,0-4.96-.09-2.52-.17-5.22-.43-7.65-.96-1.39-.26-2.7-.61-4-1.04,0,0-.09,0-.09-.09-.61-.17-1.22-.35-1.83-.61-1.39-2.09-1.74-3.56-1.74-4.61M223.02,256.78l-.09-.09-4.09-2.87c-.52-.52-.7-.96-.7-1.3,0-.61.43-1.13.43-1.22,0,0,5.74-5.83,8.43-11.56,1.48-4.52,1.91-15.13,2-15.13.61-5.22,2-8.26,3.22-9.91.78-1.22,1.48-1.65,1.83-1.83.35.09.7.26.96.35-1.3,1.48-4.52,5.83-4.7,12.69l-1.48,18.17v.17c0,.17-.09,1.04-1.04,3.56,0,0-1.48,3.3-2.35,5.13-.61,1.39-.7,1.48-.78,1.65-.35.78-1.39,1.91-1.65,2.17M229.19,259.47c-.7-.09-1.65-.35-2.61-.61-.78-.17-1.48-.43-2.09-.7-.26-.09-.52-.26-.61-.26h-.09c0-.09-.09-.17-.09-.17.43-.43,1.39-1.48,1.83-2.26.17-.26.26-.43.87-1.83.96-1.91,2.35-5.22,2.35-5.22.96-2.52,1.13-3.56,1.13-4.09v-.17l1.39-18.08c.17-7.48,4.26-11.82,4.78-12.43.87.26,1.74.43,2.61.61-1.65,1.48-5.13,5.65-5.13,13.13v.26c0,3.83.35,8.26.35,12.52,0,5.83-.52,11.39-2.52,15.04-.35.52-.61.87-.87,1.39.26.17-1.04,1.48-1.3,2.87M237.45,262.6c-.26-.17-.78-.61-1.22-1.13-1.48-1.57-3.13-1.39-5.39-1.48-.35-.09-.26,0-.35-.17-.09-.52,1.22-2.26,1.22-2.26.43-.52.7-1.04.96-1.57,2.26-4,2.7-9.74,2.7-15.56,0-4.35-.26-8.78-.35-12.52v-.26c0-9.22,5.48-12.78,5.39-12.78h.09c2.09.35,4.17.61,6.35.78-1.13,1.57-3.39,5.13-3.48,10.09,0,6.43,1.83,15.82,1.83,18.08,0,0,0,.17.09.35-.09.96-.61,4.35-1.3,7.56-.26,1.13-.7,3.04-.7,5.48,0,1.74.26,3.74,1.04,5.83-.61-.09-1.22-.17-1.74-.17h-.17c-.17,0-.26,0-.43.09h0c-.52.09-.96.09-1.48.09-1.74-.09-3.04-.43-3.04-.43M243.71,275.3l-.35.35c-.96.78-2.87,2-3.48,2.26h0c-3.39-.09-3.91-1.83-4-4.35,0-1.65.43-3.39.52-4.61.09-1.91,4.09-4.43,5.48-4.78.17-.09.35-.09.52-.09h.09c.78,0,1.83.17,2.87.26,1.22.17,2.35.35,2.7.35,0-.09,1.22.61,2.35,1.39.96.61,1.91,1.22,2.09,1.39v.43c0,1.39.7,2.52,1.39,3.39-1.3-.09-2.52-.09-2.96-.09h-.09c-1.57.09-5.91,2.7-7.13,4.09M245.19,276.08c0-.17-.09-.26-.17-.35,1.13-1.04,5.13-3.3,5.74-3.3h0c.96.09,2.87,0,4.61.17,1.22.09,2.35.43,2.35.52.78.87,1.13,4.26,2,5.22.52.43,4.35,3.56,4.35,3.56.26.17.7.17.87-.09.26-.26.17-.7-.09-.87,0,0-3.91-3.22-4.35-3.56-.17.09-.87-3.74-1.83-5.04-.61-.7-1.65-.87-2.78-1.04h0c-.7-.52-2.17-2-2.17-3.48v-.09c0-.17.09-.43.09-.7.35-1.57,1.57-3.56,3.04-5.3.52-.61,1.48-1.39,2.52-2.09,1.65-1.04,3.48-2,4.17-2.35,2.96,3.13,8.87,9.13,11.82,10.96h0c-.52,2.35-.96,4.87-.96,7.74v1.04c.09,2.52.17,5.3.35,7.91-2,1.74-4.96,2.17-8.35,2.17-2.35,0-4.96-.26-7.48-.35-5.48-.35-10.09-3.3-11.82-5.04l-.43-.43c-1.04-1.39-1.48-5.22-1.48-5.22M304.57,305.47c.43.61,1.3,1.74,2.17,3.3.43.78.7,2.17.7,3.56,0,1.83-.26,3.65-.43,4.61,0,1.22-.87,1.3-3.22,4-.96,1.04-2.61,1.48-4.35,1.48-1.83,0-3.65-.43-4.78-.78-2.52-.7-8.09-1.83-11.39-2.26-2.96-.26-9.39-4.09-10.96-4.87-1.39-.61-8.96-6.87-9.74-7.65-1.13-.96-3.22-1.39-4.09-1.57h-.17c-1.65.09-6.43,3.74-7.04,4.09-.52.26-1.3.87-1.65,1.74-.09.17-.17.52-.17.61,0,.61.26.96.43,1.39.43.96,1.48.96,1.65,1.13.35.17.96.26,1.48.43-.09.17-.17.26-.35.43s-.26.35-.43.43c-.09.17-.09.09-.09.09-.78.61-.61,1.22-.61,1.48-.09.09-.52.17-.61.17.09,0,0,0-.09,0-.26,0-.7-.09-1.04-.09h-.26c-.26,0-1.22-.09-1.3-.09h0l-.43-.43c-.09-.09-.09-.17-.09-.17-.35-.87-2.87-5.22-2.96-6.09l-.17-.09h.17c0-1.04,1.91-6,2.87-8.09,1.13-2.43,1.13-4.96,1.22-6.17,0-.7.52-1.3.78-1.65,4.87,4.17,9.22,9.04,15.13,11.82s18.69,7.91,20.17,8.35c.26.17.78.35,1.48.61,2.52,1.04,7.22,3.13,7.74,3.65.26.26.61.26.87,0s.26-.61,0-.87c-.61-.61-2.78-1.65-4.87-2.52h.52c10.35.09,11.48-5.22,13.39-9.39.26-.09.43-.43.52-.61M300.92,293.3c.78,2.43,1.48,4.52,1.57,4.87.35.87,1.39,2.09,1.39,4.26,0,.35-.09.78-.09,1.22-.09.17-.09.35-.17.52-.17.52-.35.96-.61,1.57-2.26,4.43-2.35,8.52-12.26,8.69h-1.3l-2.7-.26h-.09c-.52-.17-1.04-.43-1.3-.52-1.3-.43-14.17-5.56-20-8.35-5.65-2.7-10-7.48-14.95-11.82-.17-.09-.17-.17-.26-.26-2.52-2.35-3.04-5.65-3.04-7.91,0-.78.09-1.39.17-1.91,2.26,1.91,6.61,4.35,11.82,4.7,2.52.17,5.13.43,7.56.43,3.13,0,6.17-.43,8.43-2,.35,3.65.96,6.87,2.78,8.35,0,0,2,1.65,2.17,1.83s.7.52,1.13.87c.26.17.52.35.61.52l.17.17c.09.26.43,1.13.43,1.48-.17.09-1.04.52-1.39,1.04-.09.17-.26.61-.26,1.04-.09.43.09,1.04.7,1.39,0,0,.17.09.52.17.35,0,.7-.17.96-.52.17-.35.61-.43.87-.52.43-.17,1.83-.52,2.43-1.57l2.09,4.35c.35.26.87.61,1.48.61.26,0,.43-.09.61-.09.26-.26.78-.61.78-1.22,0-.17,0-.35-.09-.43-.09-.35-.61-2.17-.61-2.17l-.61-2.17.43.61,1.48,2.52c.17.09.61.96,1.57,1.04.17,0,.26,0,.35-.09.35-.17,1.22-.52,1.22-1.48,0-.26-.09-.52-.17-.78-.43-1.04-1.3-3.13-1.3-3.13,0,0-.43-.87-1.04-1.74l.43.17,3.56,2.26.35.09c.09-.09.7,0,1.22-.61.17-.26.26-.52.26-.7,0-.52-.35-.96-.52-1.22-.26-.26-2.96-3.65-2.96-3.65-.09-.09-1.22-.96-2-1.3,0,0-.43-.43-.35-.52-.35-.78-1.74-1.83-2.09-2.26-.52-.35-2.61-1.74-3.74-2-.87-.17-2.26-.61-2.26-.96v-.09h0c.35-1.48,2.7-7.22,2.7-7.22l1.83-3.74s.17-.43.52-1.04c.52.52,2.35,2.26,5.83,2.26.26.52,2.7,5.65,2.87,7.22.09,1.3,1.65,6.09,2.87,10M300.31,287.21c-.52-1.91-1.04-3.48-1.13-4.09-.26-1.83-2.17-5.83-2.78-7.13,4.43-.87,7.83-3.39,9.39-5.65h0c2.26-.35,3.91-1.48,5.13-2.96-.26,1.83-.7,4-1.91,7.13,0,0-.96,2.61-2.09,4.87-.43,2.09-5.04,6.43-6.61,7.83M304.92,284.51c1.48-1.57,2.87-3.39,3.22-4.7.43-.78.7-1.48,1.04-2.26.09,3.74.43,9.3.61,11.82-2.61-2.52-4.78-4.78-4.87-4.87M335.61,288.25c-.09.61-.09,1.39-.09,2.17,0,.43,0,.87.09,1.3-.52-.17-1.04-.26-1.57-.26-2.78.09-4.96,2.09-7.74,3.04-2.7.87-5.56,1.22-6.96,1.3,1.04-2.7,3.83-10.61,4.61-17.13,0,0,.43-4,.78-9.56,0-.26-.26-.61-.52-.61-.35,0-.7.26-.7.61h0c-.43,5.48-.78,9.48-.78,9.48-.7,6.69-3.83,15.13-4.7,17.3-1.48-.43-4.17-2.78-6.78-5.13v-.09h0s-.7-9.91-.7-14.43c0-.87.09-1.57.09-1.83v-.09c1.57-4.52,1.74-7.22,2.35-9.48v-.17c1.13-2.43,1.48-5.13,1.48-6.35h0c0-.7-.61-2.7-.61-2.7,0,0-.17-.52-.26-1.22l1.04-.96h.09c.35.52.61,1.04,1.04,1.48,1.04,1.13,3.39,2.26,5.65,2.26.43,0,.96-.09,1.3-.17,1.22-.35,1.57-1.13,1.65-1.04.87-.26,1.48-.96,1.83-.87.87-.26,1.39-1.04,1.65-1.57.17,0,.35.09.52.09.61,0,1.83-.17,1.91-1.48.09-1.04.09-3.3.17-4.17.52-.35,1.57-1.39,2-3.13,1.04-.09,2.87-.26,2.87-.26,1.91-.52,2.43-2.09,2.43-3.39,0-.78-.17-1.48-.35-2-.43-1.3-2.09-2.35-2.96-2.87.17-.43.35-.87.35-1.22-.09-1.3-.96-1.91-.96-2-.35-1.22-1.48-1.83-2.43-2.09l-.26-11.48c2.09-.52,4.17-1.83,5.39-4.26l.26.17h.52c.43,0,1.13-.09,1.91-.35,1.3-.52,2.35-1.65,2.35-1.65.61-.43.96-1.04,1.04-1.65l7.13,3.39c.09.43.17.78.17,1.13v.26c-.09.17-.09.43-.09.43.09,1.39,1.04,2,1.04,2,.09.09.17.17.26.17v.35c0,1.04.09,2.09.26,3.39,0,0,.26,2.17,1.65,4.09,0,.06-.03.09-.09.09-.09,0-.7,1.91-1.04,2.09-.87.7-3.48,4-3.56,7.13,0,.26,0,.52.09.87.61,2.78,2,7.39,2,7.39.09.35.35.43.7.43l.52-.09c-.35.96-1.04,2.7-1.3,2.87-.35.35-2.52,1.74-4.26,6.69-.35-.17-.96-.35-1.65-.35-.96,0-2.09.35-3.3,1.48-1.57,1.48-2.09,1.91-2.17,1.91,0,.09-.09.09-.09.09h0l-.09.09c-.61-1.39-.78-2.7-.78-3.83-.09-6.09,6.87-8.87,6.87-8.87.26-.17.43-.52.35-.87-.17-.35-.52-.43-.78-.35,0,0-2.09.87-4.09,2.7-.09-1.48-.26-4-.35-6,.17-.35,1.22-3.56,2.61-6.96,1.39-3.56,3.48-7.39,4.35-7.56.35-.17.52-.52.35-.87-.09-.35-.52-.52-.78-.35-2,.96-4.26,6-5.83,10.09.52-2.87,1.39-6.87,2.26-10.52.09-.35-.17-.61-.52-.7s-.61.09-.7.43c-1.39,6.09-2.87,13.04-2.96,14.61-.09.35-.09.78-.09,1.22,0,2.78.35,7.39.43,7.83-1.3,1.48-2.35,3.48-2.35,6.09,0,1.39.26,2.96,1.04,4.7,0,.09.09.17.09.26-.96,1.3-.96,1.39-1.22,1.91-.17.7-1.04,4.09-1.04,4.96h0c0,.17,0,.61-.09.87-.09.17-.09.35-.09.43h0c-.09.09-.96.61-1.3.78-.35-.61-1.22-1.83-2.17-2.17-.17-.09-.52-.09-.78-.09-.35,0-1.13.09-1.22.96,0,.09,0,.26.09.35-.35.09-.96.17-1.04,1.13,0,.61.35.96.96,1.39l1.83,1.65c.09,0,1.74,1.48,3.04,1.83.26.09.7.09,1.04.09.7,0,1.48-.17,2.09-.52l-.17.52c-.52.78-1.04,2.43-1.04,3.39,0,.17,0,.43.17.7,0-.17.17,1.3,1.57,1.48.52,0,.96-.35,1.3-.87l.26-.35c-.52,1.74-1.04,3.13-1.39,3.83-1.3,2.87-3.04,4.96-3.13,7.22M342.13,263.65c-.35-.09-.7.09-.78.43s-.87,1.3-.96,2.96c0,.78-.78.78-.96.78-.26-.09-.35-.35-.43-1.13,0-.61.09-1.3.17-1.65s-.17-.61-.52-.7-.61.17-.7.52c0,.26-.17,1.04-.17,1.83,0,.61.17,1.48.7,2,0,.26-.09.96-.26,1.74l-.26.26c-.52.78-1.48,1.04-2.26,1.04-.35,0-.61,0-.78-.09-.78-.17-2.52-1.57-2.52-1.57l-1.91-1.65-.35-.35c.26-.09.78-.17,1.04-1.04v-.26c.09,0,.26,0,.35.09.09-.09,1.65,1.83,1.74,1.91.35.35.35.26.52.35.96-.09,1.91-.96,2.26-1.22.61-.7.52-1.57.61-2.26h0c0-.35.87-4.09.96-4.43.26-.61,0-.17,1.83-2.61.09-.09.52-.43,2.26-2.09.96-.96,1.83-1.13,2.43-1.13.52,0,.96.17,1.22.35-.78,2.52-1.57,5.83-2.09,10.26,0,0-1.04,3.56-2.09,7.3-.09,0-.09.09-.17.09l-1.22,2-1.13,1.57c-.26.35-.35.35-.35.35-.09.09-.09,0-.26-.35-.17-.17-.17-.43-.26-.43l-.17-.17h.17c-.09-.43.61-2.35.87-2.78.35-.61.43-1.48.7-2.61.09-.78.26-1.57.26-2,.52-.09,1.83-.43,1.91-2,.09-1.3.61-1.74.96-2.61.17-.26-.09-.61-.35-.7M336.66,328.68l-17.74-6v-3.65l17.74,5.83v3.83h0ZM372.22,318.77l-34.34,10.09v-4.09l34.34-9.74v3.74ZM350.05,317.47c.35-.09.52-.35.43-.7l-.78-5.3,2.96-.7,17.56,3.65-32.95,9.39-16.78-5.48,17.04-4-1.04,5.48c-.09.35.09.61.43.7.35.09.61-.09.78-.35l2.35-6.35,7.39-1.74,1.83,5.13c.17.17.52.35.78.26M340.66,312.25l3.56-9.04,2.78,7.56-6.35,1.48h.01ZM348.31,310.51l-.09.09-3.39-9.3c-.09-.26-.35-.35-.61-.35s-.52.17-.61.35l-4.52,11.39h-.09l1.13-8.09v-.09c.26-.52.7-1.48.96-2.52.35-1.48,1.39-5.22,2.43-6.87.61-.96,1.65-1.3,2.26-1.48l.09,1.57,2.43,15.3h.01,0ZM358.48,263.39c-4.43,8.17-10.69,15.56-11.22,16.87-.17.7-.43,1.48-.43,2.35,0,1.22.26,2.96.96,5.83.17.61.17,1.3.17,1.83,0,1.3-.35,2.52-.78,3.39l-.09-.87c0-.35-.35-.52-.7-.52-.09,0-2.35.17-3.83,2.26-1.22,1.91-2.26,5.65-2.61,7.3-.17.78-.52,1.57-.78,2.09-.26-.26-.35-.7-.35-1.04h0l.09-.17-.52-8.26-.26-.43c-.43-.26-.7-.61-.87-.96,0-.09-.09-.09-.09-.09,0,0,0-.26-.17-.35-.17-.61-.26-1.3-.26-2s.09-1.39.09-2.09c-.09-1.57,1.57-3.74,2.87-6.52.61-1.3,1.65-4.61,2.61-7.91,1.22-3.83,2.26-7.65,2.26-7.65.61-4.78,1.39-8.17,2.26-10.69,1.83-5.3,3.65-6.35,4.17-6.87.96-.87,1.83-3.91,1.83-3.91l11.65-1.65s.7-.17,1.57-.52l-3.56,7.65-.09.35v.78c0,2.61-1.04,5.91-2.61,9.22-.43.96-.87,1.74-1.3,2.61M370.74,272.78s-4.78,7.3-5.39,8.26-.61,2.35-.7,3.39c0,.52,0,1.04.09,1.22,0,.52-.43,2-.43,2-.09.26-.09.52-.09.7,0,1.39.78,2.87,1.57,3.83.87,1.04,1.91,1.74,2.17,2.43v.17c.09.52-.78,1.74-2,2.26-.7.35-2.26.52-4,.52-1.3,0-2.7-.09-3.83-.26-1.74-.26-1.83-1.48-1.83-2.26v-.35c0,.09,1.13-3.65,1.39-4.17.17-.52.17-1.3.17-2.09,0-.7,0-1.39-.09-1.91-.09-.09-.09-.17-.09-.17,0-.96,1.13-3.65,2.17-4.96.87-1.3.96-3.3.96-4.87,0-.87-.09-1.65-.09-1.91-.09-.09-.09-.52-.09-1.04,0-2.78.09-10.09.09-11.56,5.04-1.13,9.48-1.74,12.87-2.09-.7,9.65-2.96,12.78-2.87,12.87M375.09,295.82l-1.3-4.87c-1.04-2.78-1.39-5.22-1.39-7.39,0-4.35,1.57-7.39,2-8.61.61-1.65,4.7-9.39,4.7-9.39l2.43-5.22.35-1.57c.09-.35.17-.7.26-1.3.7-2.78,1.57-7.56,1.65-9.39v-.43c0-2.09-.87-5.83-1.48-7.56-.35-.78-.43-1.48-.43-2.26,0-.61.09-1.13.17-1.83.09-1.13,1.65-6.87,2-8.52l7.65-.35c.09,0,2.61-.26,4.35-1.39.26-.17.35-.61.17-.87-.17-.26-.61-.35-.87-.17-1.39.87-3.83,1.22-3.83,1.22l-11.3.61c-.35,0-.61.35-.61.7s.26.61.61.61h0l2.43-.09c-.35,1.83-1.74,7.04-1.91,8.26-.09.61-.17,1.22-.17,2s.17,1.74.52,2.7c.61,1.48,1.39,5.3,1.39,7.13v.17c-.09,1.83-.96,6.69-1.57,9.39-.09.35-.17.7-.26.96-.87,0-3.13,0-6.35.35h-.17c-3.3.26-7.74.87-12.78,2,1.39-3.04,2.35-6.17,2.35-8.78,0-.26-.09-.52-.09-.78l3.83-8.26v-.09c.09-.17.09-.26.09-.35.96-.43,1.91-.96,2.52-1.74,1.57-1.83,5.83-8.78,5.83-8.87l.09-.09c.35-.61.78-1.22,1.13-1.91l.17-.35h.09c.09-.35.26-.7.35-1.04.52-1.22,1.39-3.04,2.17-4.7.09.17,1.39-.7,1.65-.7,4.7-1.83,6.17-7.74,6.26-7.83v-.43c2.35,2.78,8.17,8.96,14.78,10.87-5.83,7.04-10.26,14.69-13.56,21.91-.17-2.35-.26-4.35-.26-5.65,0-1.22.09-1.83.09-1.83,0-.35-.26-.61-.61-.7-.35,0-.61.26-.7.61,0,0-.09.7-.09,1.83,0,1.74.09,4.43.52,7.74l.09.09c-8.17,18.95-9.22,35.39-9.22,35.47s0,.17.09.17c0,.17-.09.35-.09.52,0,1.74,1.39,3.39,5.22,4.52h.09c.09,0,.09-.09.17-.09-.26,1.39-.61,2.7-.96,3.39-1.48,3.48-2.52,6.17-2.52,7.83h0c0,.52-.09,1.39-.35,2.26-.09-.09-.17-.09-.26-.09-2.35-.61-2.78-.7-5.13-7.83M379.96,285.3s1.83-2.7,2.09-2.87c.78-.61,2.09-1.65,3.74-2.96-.26,1.91-.78,6.26-1.39,9.74-.09,0-.09-.09-.17-.09-3.65-1.13-4.43-2.43-4.43-3.39.09-.09.17-.26.17-.43M393.61,311.03h0v.09c0,.7-1.48,2.26-2,2.52-.43.35-1.83.87-2.61,1.39-.17.09-.52.17-1.04.17-.43,0-.96-.09-1.39-.09-.7,0-2.61-.7-2.61-.7h-.35s-1.39.26-2.52.26c-.17,0-.43,0-.61-.09-.7.09-.96-1.04-1.04-2.96v-.35c0-.43.09-.96.17-1.39.35-1.04.78-2,1.13-2.61.52-1.13,1.39-4.52,1.39-6.09h-.52.52c0-1.13,1.04-3.91,2.43-7.3,1.57-3.74,2.7-15.3,2.7-15.3v-.26c6-4.87,14.69-12,16.95-15.13.26-.43.61-.87,1.04-1.22v.35c0,13.74-13.3,32.34-14.61,34.95-.52.96-.61,1.91-.61,3.04,0,1.65.35,3.39.61,4.43.17.78.35,1.22.35,1.22-.09.35,2.52,4.17,2.61,5.04M416.65,305.47h-1.22c-2.35-.09-2.61,0-5.13-.17-1.22-.09-2.52-.09-3.83-.17,0,0-.09,0-.09-.09-4-.87-9.39-6.87-9.48-6.87-.17-.26-.61-.26-.87-.09-.26.26-.26.61,0,.87.17.17,3.39,3.83,6.96,5.91-1.91-.09-3.65-.17-5.22-.26-1.74-.17-3.22-.26-4.26-.35-.52-.09-.96-.09-1.22-.17-.17,0-.26,0-.35-.09-.09,0-.17-.09-.26-.09-.17-1.04-.43-2.35-.43-3.56,0-.96.09-1.91.43-2.43.78-1.57,6.78-10.17,10.96-19.82,2.26,2.52,4.43,4.96,6.52,7.22,0,.09-.09.26-.09.26.26,12.96,6.09,18,9.65,19.91h-2.09M421.6,305.3h-.17s-10.26-1.83-11.13-18.61c3.56,3.83,6.26,6.61,6.26,6.61.09.09.26.17.43.17s.35-.09.43-.17c.26-.26.26-.61,0-.87,0,0-7.39-7.74-14.09-15.3-.09-.09-.17-.09-.26-.17,2-4.87,3.39-9.91,3.39-14.52v-1.3c2.09-1.3,4.78-1.57,6.26-1.57.87,0,1.39.09,1.39.09.35,0,.7-.26.7-.52.09-.35-.17-.61-.52-.7,0,0-.61-.09-1.57-.09-1.74,0-4.78.26-7.39,2-.78.52-1.57,1.22-2.17,2.09-2.09,2.87-11.13,10.43-17.13,15.3-2,1.57-3.65,2.87-4.61,3.65-.17.17-.35.35-.52.61,0,.09-.26.26-.52.52.96-8.26,5.39-35.04,23.65-56.86.7.09,1.39.17,2.09.17h.87l-4.52,17.82c-.09.35.17.7.43.78.35.09.61-.09.7-.43l4.7-18.43c1.3-.26,2.52-.78,3.74-1.65,1.65-1.13,7.39-3.91,9.13-6.96l5.22-4.26s1.13-.96,2.26-2.43c2.35,6,3.83,14.35,5.13,25.65.43,4,.61,7.83.61,11.56,0,13.82-2.61,25.91-4.52,33.39-.26-7.39-1.48-19.91-1.48-28.61,0-2.78.09-5.13.35-6.78.52-2.96.7-5.91.7-8.43,0-5.04-.7-8.69-.7-8.69-.09-.35-.35-.61-.7-.52s-.61.43-.52.78c0,0,.7,3.56.7,8.43,0,2.52-.17,5.3-.7,8.26-.35,1.74-.43,4.17-.43,6.96,0,10.09,1.57,25.13,1.57,31.47,0,.87,0,1.57-.09,2v.09c-.35,1.65-.52,3.39-.52,5.22.09,5.48,1.48,11.04,3.91,13.39-2.35.26-6.52.7-10.35.87"/>
</svg>