<?xml version="1.0" encoding="UTF-8"?>
<svg id="Livello_1" xmlns="http://www.w3.org/2000/svg" version="1.1" viewBox="0 0 382 130">
  <!-- Generator: Adobe Illustrator 29.5.1, SVG Export Plug-In . SVG Version: 2.1.0 Build 141)  -->
  <defs>
    <style>
      .st0 {
        fill: #c2d0d4;
      }
    </style>
  </defs>
  <g>
    <path class="st0" d="M56.56,64.62l-12.65,39.8c7.14,4.49,15.68,7.01,24.75,7.01s17.55-2.46,24.73-7.01l-12.79-39.8h-24.04Z"/>
    <path class="st0" d="M22.08,65.02v.69c.1,6.28,1.46,12.33,3.82,17.84,3.26,7.61,8.44,14.19,14.85,18.97l27.74-83.96c-25.58,0-46.41,20.87-46.41,46.45"/>
    <path class="st0" d="M115.08,65.02v.69c-.1,6.28-1.46,12.33-3.82,17.84-3.26,7.61-8.44,14.19-14.85,18.97l-27.74-83.96c25.58,0,46.41,20.87,46.41,46.45"/>
  </g>
  <g>
    <path class="st0" d="M149.89,51.32l-1.15-3.33h-6.92l-1.06,3.33h-3.9l5.91-18.91h5.11l6.2,18.91h-4.19ZM145.35,36.08h-.2l-2.5,8.7h5.37l-2.67-8.7Z"/>
    <path class="st0" d="M158.28,51.32v-18.91h3.82v18.91h-3.82Z"/>
    <path class="st0" d="M179.3,51.32l-1.15-3.33h-6.92l-1.06,3.33h-3.9l5.91-18.91h5.11l6.2,18.91h-4.19ZM174.77,36.08h-.2l-2.5,8.7h5.37l-2.67-8.7Z"/>
    <path class="st0" d="M191.23,45.55v5.77h-3.82v-18.91h6.86c4.53,0,7.43,1.87,7.43,6.37s-2.7,6.77-7.2,6.77h-3.27,0ZM191.23,42.36h2.96c2.41,0,3.62-1.18,3.62-3.59s-1.38-3.19-3.79-3.19h-2.78v6.77h-.01Z"/>
    <path class="st0" d="M231.46,45.06c-1.03,4.22-3.19,6.6-8.29,6.6-5.6,0-8.24-3.53-8.24-9.76s2.64-9.76,8.24-9.76c5.11,0,7.23,2.07,8.27,6.29l-3.67.8c-.69-2.9-1.61-3.79-4.53-3.79-3.13,0-4.33,2.53-4.33,6.46,0,3.67,1.21,6.43,4.33,6.43,2.93,0,3.87-1.06,4.56-3.96l3.67.69h-.01Z"/>
    <path class="st0" d="M236.24,32.4h7.72c5.45,0,8.61,2.98,8.61,9.27s-3.04,9.64-8.21,9.64h-8.12v-18.91ZM240.06,35.73v12.25h3.87c2.96,0,4.68-2.18,4.68-6.31s-1.61-5.94-4.82-5.94h-3.73,0Z"/>
    <path class="st0" d="M261.24,45.55v5.77h-3.82v-18.91h6.86c4.53,0,7.43,1.87,7.43,6.37s-2.7,6.77-7.2,6.77h-3.27,0ZM261.24,42.36h2.96c2.41,0,3.62-1.18,3.62-3.59s-1.38-3.19-3.79-3.19h-2.78v6.77h0Z"/>
    <path class="st0" d="M285.27,41.73h7.43v1.21c0,6.17-2.96,8.72-8.38,8.72s-8.49-3.24-8.49-9.76c0-5.94,2.93-9.76,8.52-9.76,4.56,0,6.72,1.49,8.06,5.42l-3.7.8c-.69-2.04-1.66-2.93-4.31-2.93-3.47,0-4.79,2.53-4.79,6.46,0,3.67,1.38,6.43,4.79,6.43,2.84,0,3.99-.77,4.51-2.98v-.52h-3.64v-3.1h0Z"/>
  </g>
  <g>
    <path class="st0" d="M144.99,68.62c-.38-1.61-1.13-2.51-2.89-2.51-2.07,0-3.23,1.19-3.23,3.92s.98,4.13,3.23,4.13c1.72,0,2.51-.75,2.89-2.28l.86.11c-.42,1.93-1.51,2.98-3.77,2.98-2.87,0-4.13-1.82-4.13-4.95,0-3.29,1.7-4.72,4.11-4.72,2.22,0,3.35,1.03,3.79,3.1l-.86.21h0Z"/>
    <path class="st0" d="M156.36,72.39c-.54,1.82-1.86,2.6-3.84,2.6-2.85,0-4.11-1.87-4.11-4.84,0-3.14,1.59-4.84,4.09-4.84s3.92,1.51,3.92,4.07c0,.23-.04.77-.08.99h-7.02c.13,2.37.86,3.81,3.21,3.81,1.57,0,2.56-.54,3-1.91l.82.11h0ZM149.3,69.58h6.18c.02-.06.04-.15.04-.19,0-2.08-.94-3.27-3.02-3.27s-3.06,1.36-3.19,3.46h0Z"/>
    <path class="st0" d="M160.26,66.6c.67-.4,2.22-1.28,3.33-1.28,1.82,0,2.98,1.68,2.98,3.5v5.99h-.88v-5.91c0-1.32-.82-2.74-2.14-2.74-1.07,0-2.64.92-3.29,1.32v7.33h-.88v-9.3h.86s.02,1.09.02,1.09Z"/>
    <path class="st0" d="M170.38,66.31h-1.49v-.73l1.51-.08.06-2.33h.8v2.33h3.18v.8h-3.18v6.62c0,.48.54,1.2.99,1.2.54,0,1.53-.17,2.05-.27l.13.78c-.57.15-1.7.32-2.26.32-.94,0-1.8-.98-1.8-2.03v-6.64.03Z"/>
    <path class="st0" d="M178.15,67.76c1.51-1.26,3.35-2.22,4.3-2.45l.19.88c-.86.19-2.62,1.03-4.48,2.45v6.16h-.88v-9.3h.82l.04,2.26h0Z"/>
    <path class="st0" d="M184.22,70.19c0-3.1,1.26-4.88,4.02-4.88s4,1.8,4,4.88-1.26,4.8-4,4.8-4.02-1.7-4.02-4.8ZM191.32,70.19c0-2.41-.78-4.04-3.08-4.04s-3.1,1.63-3.1,4.04.96,3.94,3.1,3.94c2.3,0,3.08-1.53,3.08-3.94Z"/>
    <path class="st0" d="M207.46,74.8h-.86l-.04-1.05c-.61.38-2.14,1.24-3.04,1.24-2.32,0-3.62-1.78-3.62-4.94,0-2.93,1.53-4.74,3.75-4.74,1.24,0,2.93.54,2.93.54v-4.29l.88-.04v13.28h0ZM206.58,72.83v-6.12s-1.78-.56-2.89-.56c-1.72,0-2.87,1.53-2.87,3.9s.86,4.07,2.75,4.07c.73,0,2.37-.86,3-1.3h0Z"/>
    <path class="st0" d="M211.88,63.69h-.94v-1.51h.94v1.51ZM211.87,65.51h-.9v9.3h.9v-9.3Z"/>
    <path class="st0" d="M227.78,74.8h-.86l-.04-1.05c-.61.38-2.14,1.24-3.04,1.24-2.32,0-3.62-1.78-3.62-4.94,0-2.93,1.53-4.74,3.75-4.74,1.24,0,2.93.54,2.93.54v-4.29l.88-.04v13.28h0ZM226.9,72.83v-6.12s-1.78-.56-2.89-.56c-1.72,0-2.87,1.53-2.87,3.9s.86,4.07,2.75,4.07c.73,0,2.37-.86,3-1.3h0Z"/>
    <path class="st0" d="M230.78,70.19c0-3.1,1.26-4.88,4.02-4.88s4,1.8,4,4.88-1.26,4.8-4,4.8-4.02-1.7-4.02-4.8ZM237.88,70.19c0-2.41-.78-4.04-3.08-4.04s-3.1,1.63-3.1,4.04.96,3.94,3.1,3.94c2.3,0,3.08-1.53,3.08-3.94Z"/>
    <path class="st0" d="M248.47,68.62c-.38-1.61-1.13-2.51-2.89-2.51-2.07,0-3.23,1.19-3.23,3.92s.98,4.13,3.23,4.13c1.72,0,2.51-.75,2.89-2.28l.86.11c-.42,1.93-1.51,2.98-3.77,2.98-2.87,0-4.13-1.82-4.13-4.95,0-3.29,1.7-4.72,4.11-4.72,2.22,0,3.35,1.03,3.79,3.1l-.86.21h0Z"/>
    <path class="st0" d="M258.44,73.71c-.67.42-2.05,1.28-3.33,1.28-1.87,0-2.97-1.66-2.97-3.54v-5.95h.88v5.91c0,1.36.77,2.72,2.12,2.72,1.11,0,2.62-.92,3.27-1.32v-7.31h.88v9.3h-.82l-.04-1.09h.01Z"/>
    <path class="st0" d="M263.53,66.52c.67-.46,2.1-1.2,3.12-1.2,1.22,0,1.99.77,2.39,1.42.75-.5,2.49-1.42,3.58-1.42,1.93,0,3.04,1.61,3.04,3.54v5.95h-.88v-5.93c0-1.44-.8-2.72-2.24-2.72-.84,0-2.51.86-3.18,1.3l.23.78v6.56h-.88v-5.93c0-1.34-.84-2.72-2.18-2.72-.88,0-2.39.82-3,1.26v7.38h-.88v-9.3h.84l.04,1.01v.02Z"/>
    <path class="st0" d="M286.53,72.39c-.54,1.82-1.86,2.6-3.84,2.6-2.85,0-4.11-1.87-4.11-4.84,0-3.14,1.59-4.84,4.09-4.84s3.92,1.51,3.92,4.07c0,.23-.04.77-.08.99h-7.02c.13,2.37.86,3.81,3.21,3.81,1.57,0,2.56-.54,3-1.91l.82.11h0ZM279.47,69.58h6.18c.02-.06.04-.15.04-.19,0-2.08-.94-3.27-3.02-3.27s-3.06,1.36-3.19,3.46h-.01Z"/>
    <path class="st0" d="M290.43,66.6c.67-.4,2.22-1.28,3.33-1.28,1.82,0,2.98,1.68,2.98,3.5v5.99h-.88v-5.91c0-1.32-.82-2.74-2.14-2.74-1.07,0-2.64.92-3.29,1.32v7.33h-.88v-9.3h.86l.02,1.09h0Z"/>
    <path class="st0" d="M300.55,66.31h-1.49v-.73l1.51-.08.06-2.33h.8v2.33h3.18v.8h-3.18v6.62c0,.48.54,1.2.99,1.2.54,0,1.53-.17,2.05-.27l.13.78c-.57.15-1.7.32-2.26.32-.94,0-1.8-.98-1.8-2.03v-6.64.03Z"/>
    <path class="st0" d="M306.94,67.76c.59-1.8,1.57-2.45,3.81-2.45,2.47,0,3.29.94,3.29,3.1v4.02c.04.46.54,2.33.54,2.33l-.76.19c-.15-.29-.46-1.2-.56-1.55h-.04c-1.03.75-2.58,1.59-3.84,1.59s-2.47-1.28-2.47-3,1.82-2.33,3.63-2.56c.38-.06,2.35-.21,2.62-.21v-.71c0-1.76-.61-2.35-2.41-2.35s-2.47.48-2.93,1.82l-.88-.21h0ZM313.16,72.55v-2.56c-.4,0-1.99.13-2.3.17-1.66.23-3.04.71-3.04,1.78,0,1.21.84,2.22,1.74,2.22s2.93-1.03,3.6-1.61Z"/>
    <path class="st0" d="M317.3,65.51h6.58v.75l-5.57,7.75h5.62v.8h-6.68v-.75l5.51-7.75h-5.47v-.8h.01Z"/>
    <path class="st0" d="M327.75,63.69h-.94v-1.51h.94v1.51ZM327.73,65.51h-.9v9.3h.9v-9.3Z"/>
    <path class="st0" d="M330.8,70.19c0-3.1,1.26-4.88,4.02-4.88s4,1.8,4,4.88-1.26,4.8-4,4.8-4.02-1.7-4.02-4.8ZM337.89,70.19c0-2.41-.78-4.04-3.08-4.04s-3.1,1.63-3.1,4.04.96,3.94,3.1,3.94c2.3,0,3.08-1.53,3.08-3.94Z"/>
    <path class="st0" d="M342.68,66.6c.67-.4,2.22-1.28,3.33-1.28,1.82,0,2.98,1.68,2.98,3.5v5.99h-.88v-5.91c0-1.32-.82-2.74-2.14-2.74-1.07,0-2.64.92-3.29,1.32v7.33h-.88v-9.3h.86l.02,1.09h0Z"/>
    <path class="st0" d="M359.86,72.39c-.54,1.82-1.86,2.6-3.84,2.6-2.85,0-4.11-1.87-4.11-4.84,0-3.14,1.59-4.84,4.09-4.84s3.92,1.51,3.92,4.07c0,.23-.04.77-.08.99h-7.02c.13,2.37.86,3.81,3.21,3.81,1.57,0,2.56-.54,3-1.91l.82.11h0ZM352.81,69.58h6.18c.02-.06.04-.15.04-.19,0-2.08-.94-3.27-3.02-3.27s-3.06,1.36-3.19,3.46h-.01Z"/>
    <path class="st0" d="M145.05,91.27c-.38-1.65-1.32-2.2-2.96-2.2-1.99,0-2.98.73-2.98,1.82,0,1.03.84,1.3,2.95,1.65,2.49.4,3.81.94,3.81,2.56,0,1.78-1.4,2.85-3.92,2.85-2.37,0-3.63-.84-4.09-2.98l.86-.11c.48,1.76,1.4,2.28,3.21,2.28,2.07,0,3.04-.71,3.04-1.95,0-1.09-.98-1.4-3.08-1.76-2.51-.44-3.67-.9-3.67-2.47s1.34-2.68,3.86-2.68c2.07,0,3.35.71,3.83,2.79l-.84.21h-.02Z"/>
    <path class="st0" d="M155.05,96.67c-.67.42-2.05,1.28-3.33,1.28-1.87,0-2.96-1.66-2.96-3.54v-5.95h.88v5.91c0,1.36.76,2.72,2.12,2.72,1.11,0,2.62-.92,3.27-1.32v-7.31h.88v9.3h-.82s-.04-1.09-.04-1.09Z"/>
    <path class="st0" d="M159.63,84.52l.88-.04v11.84c0,.46.34.76.57.76.25,0,.88-.1,1.17-.17l.15.78c-.34.1-.99.25-1.38.25-.73,0-1.4-.67-1.4-1.57v-11.86h0Z"/>
    <path class="st0" d="M170.31,88.46h.82l.06.99c.59-.4,2.16-1.19,3.06-1.19,2.49,0,3.62,1.61,3.62,4.72s-1.34,4.95-3.75,4.95c-1.28,0-2.93-.59-2.93-.59v4.42l-.88.04v-13.35h0ZM171.19,90.34v6.22s1.76.54,2.89.54c1.87,0,2.87-1.53,2.87-4.09s-.86-3.88-2.75-3.88c-.73,0-2.39.78-3,1.22h0Z"/>
    <path class="st0" d="M181.84,90.72c1.51-1.26,3.35-2.22,4.3-2.45l.19.88c-.86.19-2.62,1.03-4.48,2.45v6.16h-.88v-9.3h.82l.04,2.26h0Z"/>
    <path class="st0" d="M187.91,93.15c0-3.1,1.26-4.88,4.02-4.88s4,1.8,4,4.88-1.26,4.8-4,4.8-4.02-1.7-4.02-4.8ZM195,93.15c0-2.41-.78-4.04-3.08-4.04s-3.1,1.63-3.1,4.04.96,3.94,3.1,3.94c2.3,0,3.08-1.53,3.08-3.94Z"/>
    <path class="st0" d="M198.31,99.42c0-1.11.63-1.86,1.57-2.52-.38-.19-.67-.57-.67-.94,0-.65.52-1.61.73-1.93-.98-.61-1.36-1.36-1.36-2.62,0-2.14,1.55-3.14,3.5-3.14.94,0,1.8.19,2.45.61.44-.25,1.51-.67,2.09-.84l.23.94c-.5.11-1.4.38-1.8.55.4.54.56,1.09.56,1.87,0,2.2-1.32,3.12-3.52,3.12-.48,0-1.13-.1-1.45-.21-.11.15-.52,1.05-.52,1.4,0,.5.46.75,3.12.77,2.64.02,3.5.59,3.5,2.41,0,2.2-1.99,3.23-4.38,3.23s-4.04-.8-4.04-2.7h0ZM199.21,99.27c0,1.51,1.22,2.01,3.14,2.01s3.48-.63,3.48-2.35c0-1.26-.57-1.61-2.68-1.61-.84,0-2.07-.1-2.53-.17-.8.61-1.42,1.26-1.42,2.12h0ZM202.08,93.72c1.68,0,2.62-.65,2.62-2.31s-.94-2.33-2.62-2.33c-1.51,0-2.6.65-2.6,2.33s.94,2.31,2.6,2.31Z"/>
    <path class="st0" d="M216.5,95.35c-.54,1.82-1.86,2.6-3.84,2.6-2.85,0-4.11-1.87-4.11-4.84,0-3.14,1.59-4.84,4.09-4.84s3.92,1.51,3.92,4.07c0,.23-.04.77-.08.99h-7.02c.13,2.37.86,3.81,3.21,3.81,1.57,0,2.56-.54,3-1.91l.82.11h0ZM209.44,92.54h6.18c.02-.06.04-.15.04-.19,0-2.08-.94-3.27-3.02-3.27s-3.06,1.36-3.19,3.46h0Z"/>
    <path class="st0" d="M220.09,89.26h-1.49v-.73l1.51-.08.06-2.33h.8v2.33h3.18v.8h-3.18v6.62c0,.48.54,1.2.99,1.2.54,0,1.53-.17,2.05-.27l.13.78c-.57.15-1.7.32-2.26.32-.94,0-1.8-.98-1.8-2.03v-6.64.03Z"/>
    <path class="st0" d="M228.03,89.26h-1.49v-.73l1.51-.08.06-2.33h.8v2.33h3.18v.8h-3.18v6.62c0,.48.54,1.2.99,1.2.54,0,1.53-.17,2.05-.27l.13.78c-.57.15-1.7.32-2.26.32-.94,0-1.8-.98-1.8-2.03v-6.64.03Z"/>
    <path class="st0" d="M234.12,93.15c0-3.1,1.26-4.88,4.02-4.88s4,1.8,4,4.88-1.26,4.8-4,4.8-4.02-1.7-4.02-4.8ZM241.22,93.15c0-2.41-.78-4.04-3.08-4.04s-3.1,1.63-3.1,4.04.96,3.94,3.1,3.94c2.3,0,3.08-1.53,3.08-3.94Z"/>
    <path class="st0" d="M249.73,99.42c0-1.11.63-1.86,1.57-2.52-.38-.19-.67-.57-.67-.94,0-.65.52-1.61.73-1.93-.98-.61-1.36-1.36-1.36-2.62,0-2.14,1.55-3.14,3.5-3.14.94,0,1.8.19,2.45.61.44-.25,1.51-.67,2.09-.84l.23.94c-.5.11-1.4.38-1.8.55.4.54.56,1.09.56,1.87,0,2.2-1.32,3.12-3.52,3.12-.48,0-1.13-.1-1.45-.21-.11.15-.52,1.05-.52,1.4,0,.5.46.75,3.12.77,2.64.02,3.5.59,3.5,2.41,0,2.2-1.99,3.23-4.38,3.23s-4.04-.8-4.04-2.7h-.01ZM250.63,99.27c0,1.51,1.22,2.01,3.14,2.01s3.48-.63,3.48-2.35c0-1.26-.57-1.61-2.68-1.61-.84,0-2.07-.1-2.53-.17-.8.61-1.42,1.26-1.42,2.12h0ZM253.5,93.72c1.68,0,2.62-.65,2.62-2.31s-.94-2.33-2.62-2.33c-1.51,0-2.6.65-2.6,2.33s.94,2.31,2.6,2.31Z"/>
    <path class="st0" d="M261.83,90.72c1.51-1.26,3.35-2.22,4.3-2.45l.19.88c-.86.19-2.62,1.03-4.48,2.45v6.16h-.88v-9.3h.82l.04,2.26h.01Z"/>
    <path class="st0" d="M268.19,90.72c.59-1.8,1.57-2.45,3.81-2.45,2.47,0,3.29.94,3.29,3.1v4.02c.04.46.54,2.33.54,2.33l-.76.19c-.15-.29-.46-1.2-.56-1.55h-.04c-1.03.75-2.58,1.59-3.84,1.59s-2.47-1.28-2.47-3,1.82-2.33,3.63-2.56c.38-.06,2.35-.21,2.62-.21v-.71c0-1.76-.61-2.35-2.41-2.35s-2.47.48-2.93,1.82l-.88-.21h0ZM274.41,95.5v-2.56c-.4,0-1.99.13-2.3.17-1.66.23-3.04.71-3.04,1.78,0,1.21.84,2.22,1.74,2.22s2.93-1.03,3.6-1.61Z"/>
    <path class="st0" d="M280.47,97.76h-.88v-8.49h-1.59v-.73l1.59-.08v-1.51c0-1.51.8-2.62,2.49-2.62.61,0,1.55.1,2.03.15l-.1.82c-.4-.06-1.36-.13-1.86-.13-1.24,0-1.68.65-1.68,1.86v1.43h3.4v.8h-3.4v8.49h0Z"/>
    <path class="st0" d="M287.55,86.64h-.94v-1.51h.94v1.51ZM287.53,88.46h-.9v9.3h.9v-9.3Z"/>
    <path class="st0" d="M297.67,91.58c-.38-1.61-1.13-2.51-2.89-2.51-2.07,0-3.23,1.19-3.23,3.92s.98,4.13,3.23,4.13c1.72,0,2.51-.75,2.89-2.28l.86.11c-.42,1.93-1.51,2.98-3.77,2.98-2.87,0-4.13-1.82-4.13-4.95,0-3.29,1.7-4.72,4.11-4.72,2.22,0,3.35,1.03,3.79,3.1l-.86.21h0Z"/>
    <path class="st0" d="M301.08,93.15c0-3.1,1.26-4.88,4.02-4.88s4,1.8,4,4.88-1.26,4.8-4,4.8-4.02-1.7-4.02-4.8ZM308.18,93.15c0-2.41-.78-4.04-3.08-4.04s-3.1,1.63-3.1,4.04.96,3.94,3.1,3.94c2.3,0,3.08-1.53,3.08-3.94Z"/>
  </g>
</svg>