<?xml version="1.0" encoding="UTF-8"?>
<svg id="layer" xmlns="http://www.w3.org/2000/svg" version="1.1" viewBox="0 0 489.78 84.04">
  <!-- Generator: Adobe Illustrator 29.5.1, SVG Export Plug-In . SVG Version: 2.1.0 Build 141)  -->
  <defs>
    <style>
      .st0 {
        fill: #374650;
      }
    </style>
  </defs>
  <path class="st0" d="M13.62,43.18c0-13.23,7.52-22.41,18.11-22.41,5.95,0,9.67,2.73,11.99,6.28h.25V5.23h11.24v59.12h-10.83v-5.54h-.17c-2.48,4.05-6.7,6.78-12.65,6.78-10.67,0-17.94-8.68-17.94-22.41ZM44.21,43.43c0-8.1-2.65-13.56-9.84-13.56-6.2,0-9.34,5.46-9.34,13.31s3.22,12.98,9.01,12.98c6.7,0,10.17-4.96,10.17-12.73Z"/>
  <path class="st0" d="M60.42,43.09c0-12.57,8.52-22.32,20.92-22.32,13.64,0,20.92,10.42,20.92,25.55h-30.76c.83,6.53,4.46,10.58,10.83,10.58,4.38,0,6.94-1.98,8.19-5.21h11.08c-1.57,7.52-8.27,13.89-19.18,13.89-14.06,0-21.99-9.84-21.99-22.49ZM71.66,38.55h18.85c-.33-5.37-3.89-9.1-9.01-9.1-5.95,0-8.85,3.56-9.84,9.1Z"/>
  <path class="st0" d="M104.81,50.62h10.42c.74,4.88,4.22,7.03,9.26,7.03s7.77-1.9,7.77-4.88c0-4.05-5.37-4.46-11.16-5.62-7.61-1.49-15.05-3.55-15.05-12.81s7.61-13.56,17.28-13.56c11.16,0,17.36,5.54,18.19,14.06h-10.17c-.5-4.55-3.39-6.2-8.19-6.2-4.38,0-7.28,1.65-7.28,4.71,0,3.64,5.62,3.97,11.66,5.21,7.11,1.49,14.97,3.47,14.97,13.39,0,8.52-7.28,13.64-17.86,13.64-12.32,0-19.18-5.95-19.84-14.97Z"/>
  <path class="st0" d="M147.56,5.23h11.24v10.09h-11.24V5.23ZM147.56,21.93h11.24v42.42h-11.24V21.93Z"/>
  <path class="st0" d="M164.92,65.58h11.16c.91,2.65,3.31,4.71,8.52,4.71,6.37,0,9.43-3.06,9.43-8.85v-4.63h-.25c-2.48,2.81-5.71,4.96-11.08,4.96-9.42,0-18.69-7.44-18.69-20.26s7.61-20.75,18.36-20.75c5.29,0,9.18,2.07,11.74,5.62h.16v-4.46h10.83v39.19c0,5.95-1.9,10-5.04,12.9-3.56,3.31-9.01,4.8-15.3,4.8-11.57,0-18.69-4.96-19.84-13.23ZM194.6,41.28c0-6.2-3.31-11.49-10.09-11.49-5.7,0-9.51,4.46-9.51,11.58s3.8,11.41,9.59,11.41c7.11,0,10-5.21,10-11.49Z"/>
  <path class="st0" d="M223.37,27.72h.25c2.89-4.55,6.78-6.95,12.57-6.95,8.76,0,14.63,6.61,14.63,15.87v27.7h-11.24v-26.04c0-4.55-2.65-7.77-7.36-7.77-4.96,0-8.6,3.97-8.6,9.76v24.06h-11.24V21.93h11v5.79Z"/>
  <path class="st0" d="M317.33,43.09c0-12.57,8.52-22.32,20.92-22.32,13.64,0,20.92,10.42,20.92,25.55h-30.76c.83,6.53,4.46,10.58,10.83,10.58,4.38,0,6.94-1.98,8.19-5.21h11.08c-1.57,7.52-8.27,13.89-19.18,13.89-14.06,0-21.99-9.84-21.99-22.49ZM328.58,38.55h18.85c-.33-5.37-3.89-9.1-9.01-9.1-5.95,0-8.85,3.56-9.84,9.1Z"/>
  <path class="st0" d="M375.21,28.71h.25c2.56-4.8,5.46-7.28,10.42-7.28,1.24,0,1.98.08,2.65.33v9.84h-.25c-7.36-.74-12.65,3.14-12.65,12.07v20.67h-11.24V21.93h10.83v6.78Z"/>
  <path class="st0" d="M390.75,50.62h10.42c.74,4.88,4.22,7.03,9.26,7.03s7.77-1.9,7.77-4.88c0-4.05-5.37-4.46-11.16-5.62-7.61-1.49-15.05-3.55-15.05-12.81s7.61-13.56,17.28-13.56c11.16,0,17.36,5.54,18.19,14.06h-10.17c-.5-4.55-3.39-6.2-8.19-6.2-4.38,0-7.28,1.65-7.28,4.71,0,3.64,5.62,3.97,11.66,5.21,7.11,1.49,14.96,3.47,14.96,13.39,0,8.52-7.28,13.64-17.86,13.64-12.32,0-19.18-5.95-19.84-14.97Z"/>
  <path class="st0" d="M431.84,43.18c0-12.65,9.01-22.41,22.16-22.41s22.16,9.76,22.16,22.41-9.01,22.41-22.16,22.41-22.16-9.76-22.16-22.41ZM464.75,43.18c0-8.27-3.89-13.89-10.75-13.89s-10.75,5.62-10.75,13.89,3.8,13.81,10.75,13.81,10.75-5.54,10.75-13.81Z"/>
  <path class="st0" d="M311.88,21.93h-30.72v11.37h10.85l-18.36,16.77c-1.66,1.38-4.18.2-4.18-1.96v-26.17h-11.37v31.13c0,4.74,2.69,9.21,7.07,11.01,3.91,1.61,8.31.95,11.59-1.78l23.75-21.43v11.79h11.37v-19.35h0v-11.37Z"/>
  <path class="st0" d="M13.62,43.18c0-13.23,7.52-22.41,18.11-22.41,5.95,0,9.67,2.73,11.99,6.28h.25V5.23h11.24v59.12h-10.83v-5.54h-.17c-2.48,4.05-6.7,6.78-12.65,6.78-10.67,0-17.94-8.68-17.94-22.41ZM44.21,43.43c0-8.1-2.65-13.56-9.84-13.56-6.2,0-9.34,5.46-9.34,13.31s3.22,12.98,9.01,12.98c6.7,0,10.17-4.96,10.17-12.73Z"/>
  <path class="st0" d="M60.42,43.09c0-12.57,8.52-22.32,20.92-22.32,13.64,0,20.92,10.42,20.92,25.55h-30.76c.83,6.53,4.46,10.58,10.83,10.58,4.38,0,6.94-1.98,8.19-5.21h11.08c-1.57,7.52-8.27,13.89-19.18,13.89-14.06,0-21.99-9.84-21.99-22.49ZM71.66,38.55h18.85c-.33-5.37-3.89-9.1-9.01-9.1-5.95,0-8.85,3.56-9.84,9.1Z"/>
  <path class="st0" d="M104.81,50.62h10.42c.74,4.88,4.22,7.03,9.26,7.03s7.77-1.9,7.77-4.88c0-4.05-5.37-4.46-11.16-5.62-7.61-1.49-15.05-3.55-15.05-12.81s7.61-13.56,17.28-13.56c11.16,0,17.36,5.54,18.19,14.06h-10.17c-.5-4.55-3.39-6.2-8.19-6.2-4.38,0-7.28,1.65-7.28,4.71,0,3.64,5.62,3.97,11.66,5.21,7.11,1.49,14.97,3.47,14.97,13.39,0,8.52-7.28,13.64-17.86,13.64-12.32,0-19.18-5.95-19.84-14.97Z"/>
  <path class="st0" d="M164.92,65.58h11.16c.91,2.65,3.31,4.71,8.52,4.71,6.37,0,9.43-3.06,9.43-8.85v-4.63h-.25c-2.48,2.81-5.71,4.96-11.08,4.96-9.42,0-18.69-7.44-18.69-20.26s7.61-20.75,18.36-20.75c5.29,0,9.18,2.07,11.74,5.62h.16v-4.46h10.83v39.19c0,5.95-1.9,10-5.04,12.9-3.56,3.31-9.01,4.8-15.3,4.8-11.57,0-18.69-4.96-19.84-13.23ZM194.6,41.28c0-6.2-3.31-11.49-10.09-11.49-5.7,0-9.51,4.46-9.51,11.58s3.8,11.41,9.59,11.41c7.11,0,10-5.21,10-11.49Z"/>
  <path class="st0" d="M223.37,27.72h.25c2.89-4.55,6.78-6.95,12.57-6.95,8.76,0,14.63,6.61,14.63,15.87v27.7h-11.24v-26.04c0-4.55-2.65-7.77-7.36-7.77-4.96,0-8.6,3.97-8.6,9.76v24.06h-11.24V21.93h11v5.79Z"/>
  <path class="st0" d="M317.33,43.09c0-12.57,8.52-22.32,20.92-22.32,13.64,0,20.92,10.42,20.92,25.55h-30.76c.83,6.53,4.46,10.58,10.83,10.58,4.38,0,6.94-1.98,8.19-5.21h11.08c-1.57,7.52-8.27,13.89-19.18,13.89-14.06,0-21.99-9.84-21.99-22.49ZM328.58,38.55h18.85c-.33-5.37-3.89-9.1-9.01-9.1-5.95,0-8.85,3.56-9.84,9.1Z"/>
  <path class="st0" d="M375.21,28.71h.25c2.56-4.8,5.46-7.28,10.42-7.28,1.24,0,1.98.08,2.65.33v9.84h-.25c-7.36-.74-12.65,3.14-12.65,12.07v20.67h-11.24V21.93h10.83v6.78Z"/>
  <path class="st0" d="M390.75,50.62h10.42c.74,4.88,4.22,7.03,9.26,7.03s7.77-1.9,7.77-4.88c0-4.05-5.37-4.46-11.16-5.62-7.61-1.49-15.05-3.55-15.05-12.81s7.61-13.56,17.28-13.56c11.16,0,17.36,5.54,18.19,14.06h-10.17c-.5-4.55-3.39-6.2-8.19-6.2-4.38,0-7.28,1.65-7.28,4.71,0,3.64,5.62,3.97,11.66,5.21,7.11,1.49,14.96,3.47,14.96,13.39,0,8.52-7.28,13.64-17.86,13.64-12.32,0-19.18-5.95-19.84-14.97Z"/>
  <path class="st0" d="M431.84,43.18c0-12.65,9.01-22.41,22.16-22.41s22.16,9.76,22.16,22.41-9.01,22.41-22.16,22.41-22.16-9.76-22.16-22.41ZM464.75,43.18c0-8.27-3.89-13.89-10.75-13.89s-10.75,5.62-10.75,13.89,3.8,13.81,10.75,13.81,10.75-5.54,10.75-13.81Z"/>
</svg>